{"glyphs":{"0":{"ha":800,"x_min":null,"x_max":null,"o":"m 400 -17 b 747 446 617 -17 747 147 b 400 910 747 738 619 910 b 51 446 182 910 51 744 b 400 -17 51 156 179 -17 z m 400 89 b 176 446 257 89 176 221 b 400 804 176 678 256 804 b 622 446 542 804 622 674 b 400 89 622 217 543 89 z "},"1":{"ha":800,"x_min":null,"x_max":null,"o":"m 192 0 l 661 0 l 661 97 l 490 97 l 490 893 l 383 893 l 383 876 b 293 819 383 836 365 819 l 192 819 l 192 722 l 363 722 l 363 97 l 192 97 z "},"2":{"ha":800,"x_min":null,"x_max":null,"o":"m 86 0 l 715 0 l 715 97 l 213 97 b 706 643 264 357 706 354 b 411 910 706 794 606 910 b 85 639 221 910 108 807 l 211 639 b 410 804 228 742 288 804 b 581 642 521 804 581 743 b 86 33 581 401 86 435 z "},"3":{"ha":800,"x_min":null,"x_max":null,"o":"m 739 249 b 583 468 739 344 699 425 b 713 656 676 507 713 572 b 407 910 713 801 608 910 b 76 639 215 910 100 807 l 200 639 b 406 804 217 742 281 804 b 588 654 525 804 588 749 b 357 510 588 592 556 510 l 328 510 l 328 413 l 364 413 b 614 254 574 413 614 331 b 403 89 614 150 542 89 b 182 257 268 89 199 154 l 57 257 b 404 -17 82 86 206 -17 b 739 249 625 -17 739 97 z "},"4":{"ha":800,"x_min":null,"x_max":null,"o":"m 621 0 l 621 210 l 751 210 l 751 307 l 621 307 l 621 893 l 508 893 l 61 321 l 61 210 l 496 210 l 496 0 z m 176 307 l 496 728 l 496 307 z "},"5":{"ha":800,"x_min":null,"x_max":null,"o":"m 744 297 b 421 614 744 464 657 614 b 214 543 329 614 265 585 l 229 796 l 703 796 l 703 893 l 132 893 l 104 425 l 214 414 b 411 508 247 464 306 508 b 622 296 572 508 622 400 b 411 89 622 167 551 89 b 192 251 279 89 207 151 l 69 251 b 413 -17 93 83 213 -17 b 744 297 631 -17 744 114 z "},"6":{"ha":800,"x_min":null,"x_max":null,"o":"m 753 288 b 433 586 753 475 624 586 b 179 450 324 586 231 538 b 419 804 179 678 264 804 b 625 642 519 804 593 749 l 750 642 b 424 910 707 814 590 910 b 65 446 199 910 65 744 b 421 -17 65 126 210 -15 l 422 -17 b 425 -17 424 -17 424 -17 b 753 288 614 -17 753 97 z m 422 89 b 215 282 299 89 215 161 b 422 481 215 408 297 481 b 628 283 543 481 628 407 b 422 89 628 158 546 89 z "},"7":{"ha":800,"x_min":null,"x_max":null,"o":"m 372 0 b 710 815 410 285 522 558 l 710 893 l 79 893 l 79 796 l 578 796 b 244 0 407 561 292 296 z "},"8":{"ha":800,"x_min":null,"x_max":null,"o":"m 407 -17 b 739 246 606 -17 739 81 b 586 465 739 344 682 424 b 708 664 663 506 708 575 b 407 910 708 818 586 910 b 107 664 229 910 107 813 b 226 467 107 574 151 506 b 75 244 132 425 75 350 b 407 -17 75 83 207 -17 z m 407 807 b 589 658 517 807 589 754 b 407 510 589 565 514 510 b 226 660 299 510 226 563 b 407 807 226 751 300 807 z m 407 86 b 197 250 282 86 197 149 b 407 418 197 358 282 418 b 617 251 531 418 617 357 b 407 86 617 146 533 86 z "},"9":{"ha":800,"x_min":null,"x_max":null,"o":"m 64 610 b 383 301 64 414 193 301 b 622 435 486 301 574 350 b 389 89 622 211 540 89 b 186 244 290 89 215 140 l 61 244 b 385 -17 103 75 222 -17 b 739 450 603 -17 739 147 b 390 910 739 765 606 908 b 388 910 389 910 389 910 b 64 610 197 910 64 799 z m 392 804 b 593 610 513 804 593 732 b 392 407 593 481 513 407 b 189 610 269 407 189 482 b 392 804 189 735 269 804 z "},"\u0000":{"ha":0,"x_min":null,"x_max":null,"o":""},"\r":{"ha":0,"x_min":null,"x_max":null,"o":""}," ":{"ha":278,"x_min":null,"x_max":null,"o":""}," ":{"ha":278,"x_min":null,"x_max":null,"o":""},"A":{"ha":946,"x_min":null,"x_max":null,"o":"m 785 0 l 918 0 l 546 944 l 399 944 l 28 0 l 154 0 l 243 226 l 696 226 z m 442 738 l 469 821 l 497 738 l 657 329 l 282 329 z "},"B":{"ha":871,"x_min":null,"x_max":null,"o":"m 108 0 l 488 0 b 811 265 689 0 811 97 b 621 496 811 378 744 464 b 760 693 711 531 760 603 b 440 944 760 847 635 944 l 108 944 z m 438 842 b 628 686 556 842 628 782 b 435 535 628 596 557 535 l 236 535 l 236 842 z m 465 432 b 681 268 599 432 681 368 b 485 103 681 168 606 103 l 236 103 l 236 432 z "},"C":{"ha":946,"x_min":null,"x_max":null,"o":"m 886 672 b 503 961 840 861 685 961 b 74 471 236 961 74 772 b 497 -17 74 168 233 -17 b 885 267 678 -17 832 88 l 750 267 b 499 93 710 153 615 93 b 204 471 313 93 204 235 b 499 851 204 707 314 851 b 753 672 619 851 718 788 z "},"D":{"ha":968,"x_min":null,"x_max":null,"o":"m 108 0 l 417 0 b 893 471 710 0 893 175 b 417 944 893 767 710 944 l 108 944 z m 417 104 l 236 104 l 236 840 l 417 840 b 763 471 633 840 763 704 b 417 104 763 240 633 104 z "},"E":{"ha":810,"x_min":null,"x_max":null,"o":"m 108 0 l 749 0 l 749 104 l 236 104 l 236 438 l 697 438 l 697 542 l 236 542 l 236 840 l 749 840 l 749 944 l 108 944 z "},"F":{"ha":797,"x_min":null,"x_max":null,"o":"m 108 0 l 236 0 l 236 413 l 697 413 l 697 517 l 236 517 l 236 840 l 749 840 l 749 944 l 108 944 z "},"G":{"ha":974,"x_min":null,"x_max":null,"o":"m 885 0 l 885 483 l 521 483 l 521 382 l 763 382 b 503 93 754 179 643 93 b 204 471 315 93 204 235 b 499 851 204 707 314 851 b 753 672 619 851 718 788 l 886 672 b 503 961 840 861 685 961 b 74 471 236 961 74 772 b 492 -17 74 168 236 -17 b 779 149 617 -17 721 36 l 789 0 z "},"H":{"ha":967,"x_min":null,"x_max":null,"o":"m 108 0 l 236 0 l 236 435 l 731 435 l 731 0 l 858 0 l 858 944 l 731 944 l 731 539 l 236 539 l 236 944 l 108 944 z "},"I":{"ha":344,"x_min":null,"x_max":null,"o":"m 108 0 l 236 0 l 236 944 l 108 944 z "},"J":{"ha":735,"x_min":null,"x_max":null,"o":"m 43 285 b 340 -17 54 101 164 -17 b 638 322 524 -17 638 113 l 638 944 l 510 944 l 510 308 b 340 93 510 174 447 93 b 171 285 235 93 182 165 z "},"K":{"ha":864,"x_min":null,"x_max":null,"o":"m 108 0 l 236 0 l 236 453 l 668 0 l 840 0 l 385 481 l 829 944 l 668 944 l 236 489 l 236 944 l 108 944 z "},"L":{"ha":756,"x_min":null,"x_max":null,"o":"m 108 0 l 711 0 l 711 104 l 236 104 l 236 944 l 108 944 z "},"M":{"ha":1200,"x_min":null,"x_max":null,"o":"m 108 0 l 236 0 l 236 786 l 301 606 l 554 0 l 644 0 l 897 604 l 964 790 l 964 0 l 1092 0 l 1092 944 l 921 944 l 632 251 l 603 167 l 575 251 l 285 944 l 108 944 z "},"N":{"ha":967,"x_min":null,"x_max":null,"o":"m 108 0 l 236 0 l 236 760 l 292 663 l 725 0 l 858 0 l 858 944 l 731 944 l 731 185 l 676 278 l 242 944 l 108 944 z "},"O":{"ha":1039,"x_min":null,"x_max":null,"o":"m 519 -17 b 965 471 794 -17 965 169 b 519 961 965 772 794 961 b 74 471 243 961 74 772 b 519 -17 74 169 243 -17 z m 519 93 b 204 471 322 93 204 236 b 519 851 204 707 322 851 b 835 471 717 851 835 707 b 519 93 835 236 717 93 z "},"P":{"ha":836,"x_min":null,"x_max":null,"o":"m 108 0 l 236 0 l 236 344 l 433 344 b 781 646 644 344 781 456 b 432 944 781 831 646 944 l 108 944 z m 431 840 b 649 644 565 840 649 764 b 426 449 649 524 567 449 l 236 449 l 236 840 z "},"Q":{"ha":1039,"x_min":null,"x_max":null,"o":"m 519 -17 b 738 32 601 -17 675 0 l 893 -99 l 965 -11 l 832 100 b 965 471 918 185 965 311 b 519 961 965 772 794 961 b 74 471 243 961 74 772 b 519 -17 74 169 243 -17 z m 519 93 b 204 471 322 93 204 236 b 519 851 204 707 322 851 b 835 471 717 851 835 707 b 738 179 835 344 800 244 l 560 328 l 488 240 l 639 114 b 519 93 603 100 564 93 z "},"R":{"ha":864,"x_min":null,"x_max":null,"o":"m 108 0 l 236 0 l 236 396 l 436 396 b 625 256 550 396 597 374 l 685 0 l 819 0 l 749 281 b 632 453 725 374 693 425 b 774 678 721 493 774 569 b 449 944 774 842 647 944 l 108 944 z m 446 840 b 642 671 568 840 642 775 b 443 500 642 567 568 500 l 236 500 l 236 840 z "},"S":{"ha":838,"x_min":null,"x_max":null,"o":"m 206 714 b 394 851 206 797 275 851 b 625 672 515 851 596 797 l 760 672 b 397 961 725 874 579 961 b 75 706 189 961 75 842 b 654 250 75 324 654 539 b 438 93 654 156 579 93 b 186 267 301 93 217 154 l 53 267 b 436 -17 94 76 233 -17 b 785 267 638 -17 785 85 b 206 714 785 654 206 447 z "},"T":{"ha":861,"x_min":null,"x_max":null,"o":"m 367 0 l 494 0 l 494 836 l 818 836 l 818 944 l 43 944 l 43 836 l 367 836 z "},"U":{"ha":949,"x_min":null,"x_max":null,"o":"m 851 360 l 851 944 l 724 944 l 724 360 b 475 86 724 190 631 86 b 226 360 319 86 226 189 l 226 944 l 97 944 l 97 360 b 475 -17 97 126 242 -17 b 851 360 707 -17 851 126 z "},"V":{"ha":946,"x_min":null,"x_max":null,"o":"m 161 944 l 28 944 l 400 0 l 547 0 l 918 944 l 792 944 l 504 207 l 476 124 l 449 207 z "},"W":{"ha":1458,"x_min":null,"x_max":null,"o":"m 956 0 l 1106 0 l 1406 944 l 1275 944 l 1053 206 l 1035 135 l 1017 206 l 803 944 l 665 944 l 450 206 l 432 135 l 413 206 l 189 944 l 53 944 l 353 0 l 504 0 l 708 697 l 731 774 l 751 697 z "},"X":{"ha":896,"x_min":null,"x_max":null,"o":"m 717 0 l 865 0 l 522 490 l 840 944 l 703 944 l 499 658 l 456 590 l 413 658 l 204 944 l 56 944 l 375 488 l 31 0 l 168 0 l 403 328 l 442 388 l 481 328 z "},"Y":{"ha":847,"x_min":null,"x_max":null,"o":"m 360 0 l 488 0 l 488 349 l 826 944 l 690 944 l 469 551 l 428 461 l 385 551 l 164 944 l 21 944 l 360 349 z "},"Z":{"ha":856,"x_min":null,"x_max":null,"o":"m 71 0 l 783 0 l 783 108 l 219 108 l 783 836 l 783 944 l 71 944 l 71 836 l 635 836 l 71 108 z "},"Æ":{"ha":1331,"x_min":null,"x_max":null,"o":"m 650 0 l 1269 0 l 1269 104 l 778 104 l 778 433 l 1218 433 l 1218 538 l 778 538 l 778 840 l 1269 840 l 1269 944 l 458 944 l 28 0 l 158 0 l 271 249 l 650 249 z m 317 353 l 538 840 l 650 840 l 650 353 z "},"Œ":{"ha":1496,"x_min":null,"x_max":null,"o":"m 506 -17 b 807 122 633 -17 738 33 l 807 0 l 1435 0 l 1435 104 l 932 104 l 932 433 l 1383 433 l 1383 538 l 932 538 l 932 840 l 1435 840 l 1435 944 l 807 944 l 807 819 b 503 961 738 911 633 961 b 74 471 238 961 74 772 b 506 -17 74 169 238 -17 z m 506 86 b 204 471 317 86 204 232 b 506 857 204 710 317 857 b 807 471 694 857 807 710 b 506 86 807 232 694 86 z "},"Ł":{"ha":756,"x_min":null,"x_max":null,"o":"m 108 0 l 711 0 l 711 104 l 236 104 l 236 440 l 428 518 l 428 613 l 236 535 l 236 944 l 108 944 l 108 483 l 21 449 l 21 354 l 108 389 z "},"Ø":{"ha":1039,"x_min":null,"x_max":null,"o":"m 110 -44 l 222 -44 l 282 43 b 519 -17 347 4 428 -17 b 965 471 794 -17 965 169 b 831 844 965 631 917 760 l 929 989 l 817 989 l 757 901 b 519 961 690 940 611 961 b 74 471 243 961 74 772 b 208 99 74 311 121 183 z m 204 471 b 519 851 204 707 322 851 b 690 804 586 851 643 835 l 279 204 b 204 471 231 268 204 360 z m 519 93 b 349 140 453 93 396 110 l 758 740 b 835 471 808 675 835 583 b 519 93 835 236 717 93 z "},"Ð":{"ha":968,"x_min":null,"x_max":null,"o":"m 108 0 l 417 0 b 893 471 710 0 893 175 b 417 944 893 767 710 944 l 108 944 l 108 543 l 21 543 l 21 435 l 108 435 z m 417 104 l 236 104 l 236 435 l 499 435 l 499 543 l 236 543 l 236 840 l 417 840 b 763 471 633 840 763 704 b 417 104 763 240 633 104 z "},"Þ":{"ha":836,"x_min":null,"x_max":null,"o":"m 108 0 l 236 0 l 236 194 l 433 194 b 781 496 644 194 781 306 b 432 794 781 681 646 794 l 236 794 l 236 944 l 108 944 z m 431 690 b 649 494 565 690 649 614 b 426 299 649 374 567 299 l 236 299 l 236 690 z "},"a":{"ha":794,"x_min":null,"x_max":null,"o":"m 210 497 b 388 650 225 592 282 650 b 569 465 514 650 569 585 l 569 449 b 226 406 428 447 326 439 b 63 194 118 369 63 296 b 318 -17 63 54 165 -17 b 569 117 407 -17 507 24 b 589 0 571 72 575 29 l 718 0 b 692 178 699 40 692 93 l 692 468 b 399 756 692 640 596 756 b 88 497 218 756 111 660 z m 188 197 b 569 357 188 288 256 354 l 569 322 b 331 89 569 196 467 89 b 188 197 244 89 188 129 z "},"b":{"ha":800,"x_min":null,"x_max":null,"o":"m 219 0 l 219 88 b 426 -17 268 19 339 -17 b 740 371 619 -17 740 121 b 426 756 740 611 622 756 b 219 646 339 756 268 715 l 219 1000 l 97 1000 l 97 0 z m 418 650 b 615 371 543 650 615 549 b 418 89 615 189 546 89 b 219 371 292 89 219 192 b 418 650 219 551 289 650 z "},"c":{"ha":767,"x_min":null,"x_max":null,"o":"m 707 483 b 393 756 683 664 556 756 b 60 368 188 756 60 618 b 394 -17 60 129 185 -17 b 713 246 556 -17 679 63 l 590 246 b 397 88 567 140 496 88 b 185 368 261 88 185 189 b 393 650 185 550 257 650 b 585 483 490 650 565 596 z "},"d":{"ha":800,"x_min":null,"x_max":null,"o":"m 374 -17 b 581 93 461 -17 532 24 l 581 0 l 703 0 l 703 1000 l 581 1000 l 581 651 b 374 756 532 719 461 756 b 60 368 181 756 60 618 b 374 -17 60 128 178 -17 z m 382 89 b 185 368 257 89 185 190 b 382 650 185 550 254 650 b 581 368 508 650 581 547 b 382 89 581 188 511 89 z "},"e":{"ha":794,"x_min":null,"x_max":null,"o":"m 735 240 l 607 240 b 403 89 581 139 507 89 b 185 347 269 89 192 182 l 729 347 l 729 378 b 396 756 729 613 604 756 b 60 368 189 756 60 618 b 403 -17 60 128 189 -17 b 735 240 571 -17 694 68 z m 396 650 b 601 439 511 650 585 575 l 189 439 b 396 650 207 576 278 650 z "},"f":{"ha":378,"x_min":null,"x_max":null,"o":"m 7 640 l 110 640 l 110 0 l 232 0 l 232 640 l 378 640 l 378 738 l 232 738 l 232 788 b 365 918 232 876 258 918 l 378 918 l 378 1006 b 310 1017 365 1011 340 1017 b 110 788 174 1017 110 943 l 110 738 l 7 738 z "},"g":{"ha":801,"x_min":null,"x_max":null,"o":"m 360 -6 b 581 100 454 -6 529 31 l 581 -26 b 400 -222 581 -164 508 -222 b 201 -72 293 -222 217 -169 l 79 -72 b 401 -324 106 -240 228 -324 b 703 -22 571 -324 703 -228 l 703 738 l 581 738 l 581 657 b 360 756 532 721 458 756 b 60 374 175 756 60 621 b 360 -6 60 138 172 -6 z m 382 100 b 185 374 256 100 185 200 b 382 650 185 553 254 650 b 581 375 508 650 581 549 b 382 100 581 197 511 100 z "},"h":{"ha":794,"x_min":null,"x_max":null,"o":"m 97 0 l 219 0 l 219 436 b 414 651 219 542 292 651 b 575 468 525 651 575 579 l 575 0 l 697 0 l 697 493 b 447 756 697 664 604 756 b 219 638 350 756 269 715 l 219 1000 l 97 1000 z "},"i":{"ha":317,"x_min":null,"x_max":null,"o":"m 97 836 l 219 836 l 219 1000 l 97 1000 z m 97 0 l 219 0 l 219 738 l 97 738 z "},"j":{"ha":317,"x_min":null,"x_max":null,"o":"m 97 836 l 219 836 l 219 1000 l 97 1000 z m 219 -94 l 219 738 l 97 738 l 97 -94 b -36 -225 97 -183 71 -225 l -49 -225 l -49 -312 b 19 -324 -36 -318 -11 -324 b 219 -94 156 -324 219 -250 z "},"k":{"ha":728,"x_min":null,"x_max":null,"o":"m 97 0 l 219 0 l 219 376 l 551 0 l 707 0 l 351 408 l 688 738 l 538 738 l 219 421 l 219 1000 l 97 1000 z "},"l":{"ha":317,"x_min":null,"x_max":null,"o":"m 97 0 l 219 0 l 219 1000 l 97 1000 z "},"m":{"ha":1206,"x_min":null,"x_max":null,"o":"m 97 0 l 219 0 l 219 436 b 397 651 219 542 286 651 b 542 468 497 651 542 579 l 542 0 l 664 0 l 664 436 b 842 651 664 542 731 651 b 986 468 942 651 986 579 l 986 0 l 1108 0 l 1108 493 b 868 756 1108 664 1018 756 b 640 625 769 756 689 711 b 431 756 606 711 532 756 b 219 643 340 756 267 718 l 219 738 l 97 738 z "},"n":{"ha":794,"x_min":null,"x_max":null,"o":"m 97 0 l 219 0 l 219 436 b 414 651 219 542 292 651 b 575 468 525 651 575 579 l 575 0 l 697 0 l 697 493 b 447 756 697 664 604 756 b 219 638 350 756 269 715 l 219 738 l 97 738 z "},"o":{"ha":794,"x_min":null,"x_max":null,"o":"m 397 -17 b 735 368 604 -17 735 119 b 397 756 735 608 608 756 b 60 368 190 756 60 618 b 397 -17 60 128 186 -17 z m 397 89 b 185 368 261 89 185 190 b 397 650 185 550 260 650 b 610 368 533 650 610 547 b 397 89 610 188 535 89 z "},"p":{"ha":801,"x_min":null,"x_max":null,"o":"m 221 -306 l 221 88 b 428 -17 269 19 340 -17 b 742 371 621 -17 742 121 b 428 756 742 611 624 756 b 221 646 340 756 269 715 l 221 738 l 99 738 l 99 -306 z m 419 650 b 617 371 544 650 617 549 b 419 89 617 189 547 89 b 221 371 293 89 221 192 b 419 650 221 551 290 650 z "},"q":{"ha":801,"x_min":null,"x_max":null,"o":"m 374 -17 b 581 93 461 -17 532 24 l 581 -306 l 703 -306 l 703 738 l 581 738 l 581 651 b 374 756 532 719 461 756 b 60 368 181 756 60 618 b 374 -17 60 128 178 -17 z m 382 89 b 185 368 257 89 185 190 b 382 650 185 550 254 650 b 581 368 508 650 581 547 b 382 89 581 188 511 89 z "},"r":{"ha":518,"x_min":null,"x_max":null,"o":"m 97 0 l 219 0 l 219 413 b 431 638 219 546 283 638 b 507 628 460 638 486 635 l 507 738 b 438 756 493 749 467 756 b 219 624 349 756 269 714 l 219 738 l 97 738 z "},"s":{"ha":715,"x_min":null,"x_max":null,"o":"m 188 549 b 332 656 188 610 240 656 b 518 497 436 656 500 613 l 640 497 b 339 756 617 681 499 756 b 71 540 158 756 71 653 b 544 200 71 235 544 401 b 375 81 544 131 486 81 b 168 240 261 81 185 138 l 46 240 b 371 -17 74 67 196 -17 b 667 208 544 -17 667 71 b 188 549 667 513 188 343 z "},"t":{"ha":418,"x_min":null,"x_max":null,"o":"m 114 213 b 317 -17 114 57 179 -17 b 396 -6 351 -17 382 -12 l 396 82 l 371 82 b 236 213 263 82 236 124 l 236 640 l 399 640 l 399 738 l 236 738 l 236 907 l 114 907 l 114 738 l 11 738 l 11 640 l 114 640 z "},"u":{"ha":786,"x_min":null,"x_max":null,"o":"m 567 301 b 376 88 567 196 496 88 b 219 269 268 88 219 158 l 219 738 l 97 738 l 97 244 b 343 -17 97 74 189 -17 b 567 100 439 -17 517 22 l 567 0 l 689 0 l 689 738 l 567 738 z "},"v":{"ha":714,"x_min":null,"x_max":null,"o":"m 282 0 l 432 0 l 707 738 l 583 738 l 379 165 l 361 101 l 343 165 l 139 738 l 7 738 z "},"w":{"ha":1125,"x_min":null,"x_max":null,"o":"m 736 0 l 890 0 l 1111 738 l 985 738 l 833 165 l 818 93 l 801 165 l 633 738 l 501 738 l 333 165 l 315 90 l 297 165 l 146 738 l 14 738 l 233 0 l 385 0 l 543 551 l 560 635 l 576 551 z "},"x":{"ha":726,"x_min":null,"x_max":null,"o":"m 567 0 l 719 0 l 439 383 l 697 738 l 558 738 l 408 521 l 372 461 l 335 521 l 182 738 l 29 738 l 288 383 l 7 0 l 146 0 l 318 246 l 354 303 l 390 246 z "},"y":{"ha":732,"x_min":null,"x_max":null,"o":"m 131 -322 b 381 -97 258 -322 307 -275 l 725 738 l 600 738 l 406 250 l 372 151 l 339 250 l 139 738 l 7 738 l 308 24 l 283 -33 b 96 -217 211 -199 186 -217 l 58 -217 l 58 -311 b 131 -322 74 -315 103 -322 z "},"z":{"ha":692,"x_min":null,"x_max":null,"o":"m 42 0 l 650 0 l 650 96 l 188 96 l 625 640 l 625 738 l 58 738 l 58 640 l 479 640 l 42 96 z "},"æ":{"ha":1301,"x_min":null,"x_max":null,"o":"m 214 496 b 401 650 229 589 286 650 b 575 465 521 650 575 585 l 575 440 b 226 400 431 440 324 432 b 63 194 118 364 63 290 b 307 -17 63 65 161 -17 b 619 163 431 -17 558 38 b 911 -17 671 49 772 -17 b 1242 240 1079 -17 1203 68 l 1115 240 b 911 89 1088 139 1015 89 b 697 349 782 89 704 182 l 1238 349 l 1238 386 b 904 756 1238 617 1113 756 b 654 640 796 756 710 715 b 407 756 608 713 526 756 b 92 496 224 756 114 657 z m 904 650 b 1113 440 1024 650 1097 574 l 701 440 b 904 650 718 576 788 650 z m 332 89 b 185 199 243 89 185 131 b 575 349 185 283 253 346 l 575 301 b 332 89 575 186 469 89 z "},"œ":{"ha":1344,"x_min":null,"x_max":null,"o":"m 397 -17 b 674 149 525 -17 621 40 b 954 -17 726 43 824 -17 b 1285 240 1121 -17 1246 68 l 1158 240 b 954 89 1131 139 1058 89 b 735 335 824 89 744 178 l 1281 335 l 1281 378 b 947 756 1281 613 1156 756 b 672 589 821 756 724 699 b 397 756 619 696 525 756 b 60 368 190 756 60 618 b 397 -17 60 128 186 -17 z m 397 89 b 185 368 261 89 185 190 b 397 650 185 550 260 650 b 610 368 533 650 610 547 b 397 89 610 188 535 89 z m 947 650 b 1156 426 1067 650 1142 569 l 736 426 b 947 650 751 571 824 650 z "},"ł":{"ha":317,"x_min":null,"x_max":null,"o":"m 97 0 l 219 0 l 219 486 l 303 529 l 303 624 l 219 581 l 219 1000 l 97 1000 l 97 519 l 14 476 l 14 382 l 97 425 z "},"ø":{"ha":807,"x_min":null,"x_max":null,"o":"m 403 -17 b 747 368 614 -17 747 119 b 614 692 747 515 700 626 l 672 804 l 583 804 l 544 731 b 403 756 503 747 456 756 b 60 368 193 756 60 618 b 193 47 60 224 107 113 l 133 -67 l 224 -67 l 263 8 b 403 -17 304 -8 351 -17 z m 181 368 b 403 650 181 550 260 650 b 494 632 438 650 468 644 l 247 153 b 181 368 204 200 181 274 z m 403 89 b 313 106 369 89 339 94 l 560 585 b 625 368 603 538 625 464 b 403 89 625 188 547 89 z "},"ð":{"ha":794,"x_min":null,"x_max":null,"o":"m 397 -17 b 735 361 604 -17 735 118 b 510 886 735 564 657 742 l 600 921 l 600 1000 l 447 940 b 365 1000 421 961 394 981 l 197 1000 b 339 899 249 968 296 935 l 226 856 l 226 776 l 400 843 b 521 697 447 797 488 749 b 397 715 483 710 442 715 b 60 349 190 715 60 586 b 397 -17 60 121 186 -17 z m 397 89 b 185 349 261 89 185 183 b 397 610 185 518 260 610 b 610 349 533 610 610 514 b 397 89 610 181 535 89 z "},"þ":{"ha":800,"x_min":null,"x_max":null,"o":"m 219 -306 l 219 88 b 426 -17 268 19 339 -17 b 740 371 619 -17 740 121 b 426 756 740 611 622 756 b 219 646 339 756 268 715 l 219 1000 l 97 1000 l 97 -306 z m 418 650 b 615 371 543 650 615 549 b 418 89 615 189 546 89 b 219 371 292 89 219 192 b 418 650 219 551 289 650 z "},"ß":{"ha":839,"x_min":null,"x_max":null,"o":"m 786 271 b 601 529 786 383 739 482 b 721 735 685 574 721 647 b 408 1011 721 893 622 1011 b 97 688 211 1011 97 897 l 97 0 l 219 0 l 219 694 b 411 906 219 835 286 906 b 599 729 536 906 599 833 b 393 564 599 640 549 564 l 381 564 l 381 467 l 413 467 b 665 274 618 467 665 369 b 421 89 665 160 588 89 l 299 89 l 299 0 b 444 -17 340 -12 394 -17 b 786 271 674 -17 786 101 z "},"ı":{"ha":317,"x_min":null,"x_max":null,"o":"m 97 0 l 219 0 l 219 738 l 97 738 z "},"ȷ":{"ha":317,"x_min":null,"x_max":null,"o":"m 219 -94 l 219 738 l 97 738 l 97 -94 b -36 -225 97 -183 71 -225 l -49 -225 l -49 -312 b 19 -324 -36 -318 -11 -324 b 219 -94 156 -324 219 -250 z "},"ﬁ":{"ha":694,"x_min":null,"x_max":null,"o":"m 7 640 l 110 640 l 110 0 l 232 0 l 232 640 l 378 640 l 378 738 l 232 738 l 232 788 b 365 918 232 876 258 918 l 378 918 l 378 1006 b 310 1017 365 1011 340 1017 b 110 788 174 1017 110 943 l 110 738 l 7 738 z m 475 836 l 597 836 l 597 1000 l 475 1000 z m 475 0 l 597 0 l 597 738 l 475 738 z "},"ﬂ":{"ha":694,"x_min":null,"x_max":null,"o":"m 7 640 l 110 640 l 110 0 l 232 0 l 232 640 l 378 640 l 378 738 l 232 738 l 232 788 b 365 918 232 876 258 918 l 378 918 l 378 1006 b 310 1017 365 1011 340 1017 b 110 788 174 1017 110 943 l 110 738 l 7 738 z m 475 0 l 597 0 l 597 1000 l 475 1000 z "},"Á":{"ha":946,"x_min":null,"x_max":null,"o":"m 418 1042 l 538 1042 l 704 1206 l 549 1206 z m 785 0 l 918 0 l 546 944 l 399 944 l 28 0 l 154 0 l 243 226 l 696 226 z m 442 738 l 469 821 l 497 738 l 657 329 l 282 329 z "},"Â":{"ha":946,"x_min":null,"x_max":null,"o":"m 585 1042 l 699 1042 l 560 1206 l 410 1206 l 272 1042 l 386 1042 l 486 1144 z m 785 0 l 918 0 l 546 944 l 399 944 l 28 0 l 154 0 l 243 226 l 696 226 z m 442 738 l 469 821 l 497 738 l 657 329 l 282 329 z "},"Ä":{"ha":946,"x_min":null,"x_max":null,"o":"m 350 1042 l 457 1042 l 457 1206 l 350 1206 z m 513 1042 l 619 1042 l 619 1206 l 513 1206 z m 785 0 l 918 0 l 546 944 l 399 944 l 28 0 l 154 0 l 243 226 l 696 226 z m 442 738 l 469 821 l 497 738 l 657 329 l 282 329 z "},"À":{"ha":946,"x_min":null,"x_max":null,"o":"m 551 1042 l 421 1206 l 265 1206 l 432 1042 z m 785 0 l 918 0 l 546 944 l 399 944 l 28 0 l 154 0 l 243 226 l 696 226 z m 442 738 l 469 821 l 497 738 l 657 329 l 282 329 z "},"Å":{"ha":946,"x_min":null,"x_max":null,"o":"m 485 1042 b 625 1181 565 1042 625 1100 b 485 1322 625 1261 565 1322 b 344 1181 404 1322 344 1263 b 485 1042 344 1100 404 1042 z m 485 1110 b 418 1181 446 1110 418 1139 b 485 1253 418 1224 446 1253 b 551 1181 524 1253 551 1222 b 485 1110 551 1139 524 1110 z m 785 0 l 918 0 l 546 944 l 399 944 l 28 0 l 154 0 l 243 226 l 696 226 z m 442 738 l 469 821 l 497 738 l 657 329 l 282 329 z "},"Ã":{"ha":946,"x_min":null,"x_max":null,"o":"m 346 1042 b 393 1125 349 1110 371 1125 b 582 1042 446 1125 483 1042 b 697 1206 633 1042 697 1074 l 624 1206 b 576 1121 621 1136 597 1121 b 388 1206 525 1121 488 1206 b 272 1042 336 1206 272 1172 z m 785 0 l 918 0 l 546 944 l 399 944 l 28 0 l 154 0 l 243 226 l 696 226 z m 442 738 l 469 821 l 497 738 l 657 329 l 282 329 z "},"Ă":{"ha":946,"x_min":null,"x_max":null,"o":"m 283 1206 b 486 1042 303 1083 393 1042 b 686 1206 578 1042 667 1083 l 596 1206 b 486 1122 589 1146 540 1122 b 375 1206 431 1122 381 1146 z m 785 0 l 918 0 l 546 944 l 399 944 l 28 0 l 154 0 l 243 226 l 696 226 z m 442 738 l 469 821 l 497 738 l 657 329 l 282 329 z "},"Ā":{"ha":946,"x_min":null,"x_max":null,"o":"m 318 1076 l 651 1076 l 651 1172 l 318 1172 z m 785 0 l 918 0 l 546 944 l 399 944 l 28 0 l 154 0 l 243 226 l 696 226 z m 442 738 l 469 821 l 497 738 l 657 329 l 282 329 z "},"Ą":{"ha":946,"x_min":null,"x_max":null,"o":"m 736 -153 b 840 0 736 -107 758 -61 l 918 0 l 546 944 l 399 944 l 28 0 l 154 0 l 243 226 l 696 226 l 778 17 b 638 -178 689 -44 638 -112 b 818 -324 638 -269 717 -324 b 918 -307 857 -324 883 -319 l 918 -232 b 842 -247 901 -240 881 -247 b 736 -153 774 -247 736 -208 z m 442 738 l 469 821 l 497 738 l 657 329 l 282 329 z "},"Ç":{"ha":946,"x_min":null,"x_max":null,"o":"m 504 -185 b 333 -244 504 -222 446 -242 l 333 -307 b 604 -178 513 -303 604 -264 b 489 -78 604 -122 565 -87 l 524 -15 b 885 267 693 -7 835 96 l 750 267 b 499 93 710 153 615 93 b 204 471 313 93 204 235 b 499 851 204 707 314 851 b 753 672 619 851 718 788 l 886 672 b 503 961 840 861 685 961 b 74 471 236 961 74 772 b 447 -14 74 188 214 7 l 386 -129 b 504 -185 472 -137 504 -150 z "},"Ć":{"ha":946,"x_min":null,"x_max":null,"o":"m 428 1042 l 547 1042 l 714 1206 l 558 1206 z m 886 672 b 503 961 840 861 685 961 b 74 471 236 961 74 772 b 497 -17 74 168 233 -17 b 885 267 678 -17 832 88 l 750 267 b 499 93 710 153 615 93 b 204 471 313 93 204 235 b 499 851 204 707 314 851 b 753 672 619 851 718 788 z "},"Č":{"ha":946,"x_min":null,"x_max":null,"o":"m 594 1206 l 496 1101 l 396 1206 l 282 1206 l 419 1042 l 569 1042 l 708 1206 z m 886 672 b 503 961 840 861 685 961 b 74 471 236 961 74 772 b 497 -17 74 168 233 -17 b 885 267 678 -17 832 88 l 750 267 b 499 93 710 153 615 93 b 204 471 313 93 204 235 b 499 851 204 707 314 851 b 753 672 619 851 718 788 z "},"Ĉ":{"ha":946,"x_min":null,"x_max":null,"o":"m 594 1042 l 708 1042 l 569 1206 l 419 1206 l 282 1042 l 396 1042 l 496 1144 z m 886 672 b 503 961 840 861 685 961 b 74 471 236 961 74 772 b 497 -17 74 168 233 -17 b 885 267 678 -17 832 88 l 750 267 b 499 93 710 153 615 93 b 204 471 313 93 204 235 b 499 851 204 707 314 851 b 753 672 619 851 718 788 z "},"Ċ":{"ha":946,"x_min":null,"x_max":null,"o":"m 433 1042 l 556 1042 l 556 1206 l 433 1206 z m 886 672 b 503 961 840 861 685 961 b 74 471 236 961 74 772 b 497 -17 74 168 233 -17 b 885 267 678 -17 832 88 l 750 267 b 499 93 710 153 615 93 b 204 471 313 93 204 235 b 499 851 204 707 314 851 b 753 672 619 851 718 788 z "},"Ď":{"ha":968,"x_min":null,"x_max":null,"o":"m 529 1206 l 431 1101 l 331 1206 l 217 1206 l 354 1042 l 504 1042 l 643 1206 z m 108 0 l 417 0 b 893 471 710 0 893 175 b 417 944 893 767 710 944 l 108 944 z m 417 104 l 236 104 l 236 840 l 417 840 b 763 471 633 840 763 704 b 417 104 763 240 633 104 z "},"Đ":{"ha":968,"x_min":null,"x_max":null,"o":"m 108 0 l 417 0 b 893 471 710 0 893 175 b 417 944 893 767 710 944 l 108 944 l 108 543 l 21 543 l 21 435 l 108 435 z m 417 104 l 236 104 l 236 435 l 499 435 l 499 543 l 236 543 l 236 840 l 417 840 b 763 471 633 840 763 704 b 417 104 763 240 633 104 z "},"É":{"ha":810,"x_min":null,"x_max":null,"o":"m 367 1042 l 486 1042 l 653 1206 l 497 1206 z m 108 0 l 749 0 l 749 104 l 236 104 l 236 438 l 697 438 l 697 542 l 236 542 l 236 840 l 749 840 l 749 944 l 108 944 z "},"Ê":{"ha":810,"x_min":null,"x_max":null,"o":"m 533 1042 l 647 1042 l 508 1206 l 358 1206 l 221 1042 l 335 1042 l 435 1144 z m 108 0 l 749 0 l 749 104 l 236 104 l 236 438 l 697 438 l 697 542 l 236 542 l 236 840 l 749 840 l 749 944 l 108 944 z "},"Ë":{"ha":810,"x_min":null,"x_max":null,"o":"m 299 1042 l 406 1042 l 406 1206 l 299 1206 z m 461 1042 l 568 1042 l 568 1206 l 461 1206 z m 108 0 l 749 0 l 749 104 l 236 104 l 236 438 l 697 438 l 697 542 l 236 542 l 236 840 l 749 840 l 749 944 l 108 944 z "},"È":{"ha":810,"x_min":null,"x_max":null,"o":"m 500 1042 l 369 1206 l 214 1206 l 381 1042 z m 108 0 l 749 0 l 749 104 l 236 104 l 236 438 l 697 438 l 697 542 l 236 542 l 236 840 l 749 840 l 749 944 l 108 944 z "},"Ĕ":{"ha":810,"x_min":null,"x_max":null,"o":"m 232 1206 b 435 1042 251 1083 342 1042 b 635 1206 526 1042 615 1083 l 544 1206 b 435 1122 538 1146 490 1122 b 324 1206 379 1122 331 1146 z m 108 0 l 749 0 l 749 104 l 236 104 l 236 438 l 697 438 l 697 542 l 236 542 l 236 840 l 749 840 l 749 944 l 108 944 z "},"Ě":{"ha":810,"x_min":null,"x_max":null,"o":"m 533 1206 l 435 1101 l 335 1206 l 221 1206 l 358 1042 l 508 1042 l 647 1206 z m 108 0 l 749 0 l 749 104 l 236 104 l 236 438 l 697 438 l 697 542 l 236 542 l 236 840 l 749 840 l 749 944 l 108 944 z "},"Ė":{"ha":810,"x_min":null,"x_max":null,"o":"m 372 1042 l 494 1042 l 494 1206 l 372 1206 z m 108 0 l 749 0 l 749 104 l 236 104 l 236 438 l 697 438 l 697 542 l 236 542 l 236 840 l 749 840 l 749 944 l 108 944 z "},"Ē":{"ha":810,"x_min":null,"x_max":null,"o":"m 267 1076 l 600 1076 l 600 1172 l 267 1172 z m 108 0 l 749 0 l 749 104 l 236 104 l 236 438 l 697 438 l 697 542 l 236 542 l 236 840 l 749 840 l 749 944 l 108 944 z "},"Ę":{"ha":810,"x_min":null,"x_max":null,"o":"m 108 0 l 582 0 b 465 -178 507 -57 465 -119 b 646 -324 465 -269 544 -324 b 746 -307 685 -324 711 -319 l 746 -232 b 669 -247 729 -240 708 -247 b 564 -153 601 -247 564 -208 b 668 0 564 -107 586 -61 l 749 0 l 749 104 l 236 104 l 236 438 l 697 438 l 697 542 l 236 542 l 236 840 l 749 840 l 749 944 l 108 944 z "},"Ğ":{"ha":974,"x_min":null,"x_max":null,"o":"m 286 1206 b 489 1042 306 1083 396 1042 b 689 1206 581 1042 669 1083 l 599 1206 b 489 1122 592 1146 543 1122 b 378 1206 433 1122 383 1146 z m 885 0 l 885 483 l 521 483 l 521 382 l 763 382 b 503 93 754 179 643 93 b 204 471 315 93 204 235 b 499 851 204 707 314 851 b 753 672 619 851 718 788 l 886 672 b 503 961 840 861 685 961 b 74 471 236 961 74 772 b 492 -17 74 168 236 -17 b 779 149 617 -17 721 36 l 789 0 z "},"Ĝ":{"ha":974,"x_min":null,"x_max":null,"o":"m 588 1042 l 701 1042 l 563 1206 l 413 1206 l 275 1042 l 389 1042 l 489 1144 z m 885 0 l 885 483 l 521 483 l 521 382 l 763 382 b 503 93 754 179 643 93 b 204 471 315 93 204 235 b 499 851 204 707 314 851 b 753 672 619 851 718 788 l 886 672 b 503 961 840 861 685 961 b 74 471 236 961 74 772 b 492 -17 74 168 236 -17 b 779 149 617 -17 721 36 l 789 0 z "},"Ģ":{"ha":974,"x_min":null,"x_max":null,"o":"m 885 0 l 885 483 l 521 483 l 521 382 l 763 382 b 503 93 754 179 643 93 b 204 471 315 93 204 235 b 499 851 204 707 314 851 b 753 672 619 851 718 788 l 886 672 b 503 961 840 861 685 961 b 74 471 236 961 74 772 b 492 -17 74 168 236 -17 b 779 149 617 -17 721 36 l 789 0 z m 421 -206 l 478 -206 b 436 -318 478 -249 461 -283 l 500 -318 b 558 -146 536 -271 558 -221 l 558 -108 l 421 -108 z "},"Ġ":{"ha":974,"x_min":null,"x_max":null,"o":"m 426 1042 l 549 1042 l 549 1206 l 426 1206 z m 885 0 l 885 483 l 521 483 l 521 382 l 763 382 b 503 93 754 179 643 93 b 204 471 315 93 204 235 b 499 851 204 707 314 851 b 753 672 619 851 718 788 l 886 672 b 503 961 840 861 685 961 b 74 471 236 961 74 772 b 492 -17 74 168 236 -17 b 779 149 617 -17 721 36 l 789 0 z "},"Ħ":{"ha":967,"x_min":null,"x_max":null,"o":"m 108 0 l 236 0 l 236 435 l 731 435 l 731 0 l 858 0 l 858 718 l 914 718 l 914 807 l 858 807 l 858 944 l 731 944 l 731 807 l 236 807 l 236 944 l 108 944 l 108 807 l 53 807 l 53 718 l 108 718 z m 236 539 l 236 718 l 731 718 l 731 539 z "},"Ĥ":{"ha":967,"x_min":null,"x_max":null,"o":"m 583 1042 l 697 1042 l 558 1206 l 408 1206 l 271 1042 l 385 1042 l 485 1144 z m 108 0 l 236 0 l 236 435 l 731 435 l 731 0 l 858 0 l 858 944 l 731 944 l 731 539 l 236 539 l 236 944 l 108 944 z "},"Í":{"ha":344,"x_min":null,"x_max":null,"o":"m 106 1042 l 225 1042 l 392 1206 l 236 1206 z m 108 0 l 236 0 l 236 944 l 108 944 z "},"Î":{"ha":344,"x_min":null,"x_max":null,"o":"m 272 1042 l 386 1042 l 247 1206 l 97 1206 l -40 1042 l 74 1042 l 174 1144 z m 108 0 l 236 0 l 236 944 l 108 944 z "},"Ï":{"ha":344,"x_min":null,"x_max":null,"o":"m 38 1042 l 144 1042 l 144 1206 l 38 1206 z m 200 1042 l 307 1042 l 307 1206 l 200 1206 z m 108 0 l 236 0 l 236 944 l 108 944 z "},"Ì":{"ha":344,"x_min":null,"x_max":null,"o":"m 239 1042 l 108 1206 l -47 1206 l 119 1042 z m 108 0 l 236 0 l 236 944 l 108 944 z "},"Ĭ":{"ha":344,"x_min":null,"x_max":null,"o":"m -29 1206 b 174 1042 -10 1083 81 1042 b 374 1206 265 1042 354 1083 l 283 1206 b 174 1122 276 1146 229 1122 b 63 1206 118 1122 69 1146 z m 108 0 l 236 0 l 236 944 l 108 944 z "},"İ":{"ha":344,"x_min":null,"x_max":null,"o":"m 111 1042 l 233 1042 l 233 1206 l 111 1206 z m 108 0 l 236 0 l 236 944 l 108 944 z "},"Ī":{"ha":344,"x_min":null,"x_max":null,"o":"m 6 1076 l 339 1076 l 339 1172 l 6 1172 z m 108 0 l 236 0 l 236 944 l 108 944 z "},"Į":{"ha":344,"x_min":null,"x_max":null,"o":"m 54 -153 b 158 0 54 -107 76 -61 l 236 0 l 236 944 l 108 944 l 108 25 b -44 -178 11 -37 -44 -110 b 136 -324 -44 -269 35 -324 b 236 -307 175 -324 201 -319 l 236 -232 b 160 -247 219 -240 199 -247 b 54 -153 92 -247 54 -208 z "},"Ĩ":{"ha":344,"x_min":null,"x_max":null,"o":"m 33 1042 b 81 1125 36 1110 58 1125 b 269 1042 133 1125 171 1042 b 385 1206 321 1042 385 1074 l 311 1206 b 264 1121 308 1136 286 1121 b 75 1206 213 1121 175 1206 b -40 1042 24 1206 -40 1172 z m 108 0 l 236 0 l 236 944 l 108 944 z "},"Ĵ":{"ha":735,"x_min":null,"x_max":null,"o":"m 664 1042 l 778 1042 l 639 1206 l 489 1206 l 351 1042 l 465 1042 l 565 1144 z m 43 285 b 340 -17 54 101 164 -17 b 638 322 524 -17 638 113 l 638 944 l 510 944 l 510 308 b 340 93 510 174 447 93 b 171 285 235 93 182 165 z "},"Ĳ":{"ha":1079,"x_min":null,"x_max":null,"o":"m 108 0 l 236 0 l 236 944 l 108 944 z m 388 285 b 685 -17 399 101 508 -17 b 982 322 868 -17 982 113 l 982 944 l 854 944 l 854 308 b 685 93 854 174 792 93 b 515 285 579 93 526 165 z "},"Ķ":{"ha":864,"x_min":null,"x_max":null,"o":"m 108 0 l 236 0 l 236 453 l 668 0 l 840 0 l 385 481 l 829 944 l 668 944 l 236 489 l 236 944 l 108 944 z m 365 -206 l 422 -206 b 381 -318 422 -249 406 -283 l 444 -318 b 503 -146 481 -271 503 -221 l 503 -108 l 365 -108 z "},"Ĺ":{"ha":756,"x_min":null,"x_max":null,"o":"m 126 1042 l 246 1042 l 413 1206 l 257 1206 z m 108 0 l 711 0 l 711 104 l 236 104 l 236 944 l 108 944 z "},"Ľ":{"ha":756,"x_min":null,"x_max":null,"o":"m 108 0 l 711 0 l 711 104 l 236 104 l 236 944 l 108 944 z m 324 847 l 379 847 b 339 735 379 804 369 775 l 403 735 b 460 907 438 782 460 832 l 460 944 l 324 944 z "},"Ļ":{"ha":756,"x_min":null,"x_max":null,"o":"m 108 0 l 711 0 l 711 104 l 236 104 l 236 944 l 108 944 z m 339 -206 l 396 -206 b 354 -318 396 -249 379 -283 l 418 -318 b 476 -146 454 -271 476 -221 l 476 -108 l 339 -108 z "},"Ŀ":{"ha":756,"x_min":null,"x_max":null,"o":"m 108 0 l 711 0 l 711 104 l 236 104 l 236 944 l 108 944 z m 469 340 l 592 340 l 592 503 l 469 503 z "},"Ñ":{"ha":967,"x_min":null,"x_max":null,"o":"m 346 1042 b 393 1125 349 1110 371 1125 b 582 1042 446 1125 483 1042 b 697 1206 633 1042 697 1074 l 624 1206 b 576 1121 621 1136 597 1121 b 388 1206 525 1121 488 1206 b 272 1042 336 1206 272 1172 z m 108 0 l 236 0 l 236 760 l 292 663 l 725 0 l 858 0 l 858 944 l 731 944 l 731 185 l 676 278 l 242 944 l 108 944 z "},"Ń":{"ha":967,"x_min":null,"x_max":null,"o":"m 418 1042 l 538 1042 l 704 1206 l 549 1206 z m 108 0 l 236 0 l 236 760 l 292 663 l 725 0 l 858 0 l 858 944 l 731 944 l 731 185 l 676 278 l 242 944 l 108 944 z "},"Ň":{"ha":967,"x_min":null,"x_max":null,"o":"m 585 1206 l 486 1101 l 386 1206 l 272 1206 l 410 1042 l 560 1042 l 699 1206 z m 108 0 l 236 0 l 236 760 l 292 663 l 725 0 l 858 0 l 858 944 l 731 944 l 731 185 l 676 278 l 242 944 l 108 944 z "},"Ņ":{"ha":967,"x_min":null,"x_max":null,"o":"m 108 0 l 236 0 l 236 760 l 292 663 l 725 0 l 858 0 l 858 944 l 731 944 l 731 185 l 676 278 l 242 944 l 108 944 z m 418 -206 l 475 -206 b 433 -318 475 -249 458 -283 l 497 -318 b 556 -146 533 -271 556 -221 l 556 -108 l 418 -108 z "},"Ó":{"ha":1039,"x_min":null,"x_max":null,"o":"m 453 1042 l 572 1042 l 739 1206 l 583 1206 z m 519 -17 b 965 471 794 -17 965 169 b 519 961 965 772 794 961 b 74 471 243 961 74 772 b 519 -17 74 169 243 -17 z m 519 93 b 204 471 322 93 204 236 b 519 851 204 707 322 851 b 835 471 717 851 835 707 b 519 93 835 236 717 93 z "},"Ô":{"ha":1039,"x_min":null,"x_max":null,"o":"m 619 1042 l 733 1042 l 594 1206 l 444 1206 l 307 1042 l 421 1042 l 521 1144 z m 519 -17 b 965 471 794 -17 965 169 b 519 961 965 772 794 961 b 74 471 243 961 74 772 b 519 -17 74 169 243 -17 z m 519 93 b 204 471 322 93 204 236 b 519 851 204 707 322 851 b 835 471 717 851 835 707 b 519 93 835 236 717 93 z "},"Ö":{"ha":1039,"x_min":null,"x_max":null,"o":"m 385 1042 l 492 1042 l 492 1206 l 385 1206 z m 547 1042 l 654 1042 l 654 1206 l 547 1206 z m 519 -17 b 965 471 794 -17 965 169 b 519 961 965 772 794 961 b 74 471 243 961 74 772 b 519 -17 74 169 243 -17 z m 519 93 b 204 471 322 93 204 236 b 519 851 204 707 322 851 b 835 471 717 851 835 707 b 519 93 835 236 717 93 z "},"Ò":{"ha":1039,"x_min":null,"x_max":null,"o":"m 586 1042 l 456 1206 l 300 1206 l 467 1042 z m 519 -17 b 965 471 794 -17 965 169 b 519 961 965 772 794 961 b 74 471 243 961 74 772 b 519 -17 74 169 243 -17 z m 519 93 b 204 471 322 93 204 236 b 519 851 204 707 322 851 b 835 471 717 851 835 707 b 519 93 835 236 717 93 z "},"Õ":{"ha":1039,"x_min":null,"x_max":null,"o":"m 381 1042 b 428 1125 383 1110 406 1125 b 617 1042 481 1125 518 1042 b 732 1206 668 1042 732 1074 l 658 1206 b 611 1121 656 1136 633 1121 b 422 1206 560 1121 522 1206 b 307 1042 371 1206 307 1172 z m 519 -17 b 965 471 794 -17 965 169 b 519 961 965 772 794 961 b 74 471 243 961 74 772 b 519 -17 74 169 243 -17 z m 519 93 b 204 471 322 93 204 236 b 519 851 204 707 322 851 b 835 471 717 851 835 707 b 519 93 835 236 717 93 z "},"Ŏ":{"ha":1039,"x_min":null,"x_max":null,"o":"m 318 1206 b 521 1042 338 1083 428 1042 b 721 1206 613 1042 701 1083 l 631 1206 b 521 1122 624 1146 576 1122 b 410 1206 465 1122 417 1146 z m 519 -17 b 965 471 794 -17 965 169 b 519 961 965 772 794 961 b 74 471 243 961 74 772 b 519 -17 74 169 243 -17 z m 519 93 b 204 471 322 93 204 236 b 519 851 204 707 322 851 b 835 471 717 851 835 707 b 519 93 835 236 717 93 z "},"Ő":{"ha":1039,"x_min":null,"x_max":null,"o":"m 372 1042 l 465 1042 l 590 1206 l 472 1206 z m 568 1042 l 660 1042 l 786 1206 l 668 1206 z m 519 -17 b 965 471 794 -17 965 169 b 519 961 965 772 794 961 b 74 471 243 961 74 772 b 519 -17 74 169 243 -17 z m 519 93 b 204 471 322 93 204 236 b 519 851 204 707 322 851 b 835 471 717 851 835 707 b 519 93 835 236 717 93 z "},"Ō":{"ha":1039,"x_min":null,"x_max":null,"o":"m 353 1076 l 686 1076 l 686 1172 l 353 1172 z m 519 -17 b 965 471 794 -17 965 169 b 519 961 965 772 794 961 b 74 471 243 961 74 772 b 519 -17 74 169 243 -17 z m 519 93 b 204 471 322 93 204 236 b 519 851 204 707 322 851 b 835 471 717 851 835 707 b 519 93 835 236 717 93 z "},"Ŕ":{"ha":864,"x_min":null,"x_max":null,"o":"m 365 1042 l 485 1042 l 651 1206 l 496 1206 z m 108 0 l 236 0 l 236 396 l 436 396 b 625 256 550 396 597 374 l 685 0 l 819 0 l 749 281 b 632 453 725 374 693 425 b 774 678 721 493 774 569 b 449 944 774 842 647 944 l 108 944 z m 446 840 b 642 671 568 840 642 775 b 443 500 642 567 568 500 l 236 500 l 236 840 z "},"Ř":{"ha":864,"x_min":null,"x_max":null,"o":"m 532 1206 l 433 1101 l 333 1206 l 219 1206 l 357 1042 l 507 1042 l 646 1206 z m 108 0 l 236 0 l 236 396 l 436 396 b 625 256 550 396 597 374 l 685 0 l 819 0 l 749 281 b 632 453 725 374 693 425 b 774 678 721 493 774 569 b 449 944 774 842 647 944 l 108 944 z m 446 840 b 642 671 568 840 642 775 b 443 500 642 567 568 500 l 236 500 l 236 840 z "},"Ŗ":{"ha":864,"x_min":null,"x_max":null,"o":"m 108 0 l 236 0 l 236 396 l 436 396 b 625 256 550 396 597 374 l 685 0 l 819 0 l 749 281 b 632 453 725 374 693 425 b 774 678 721 493 774 569 b 449 944 774 842 647 944 l 108 944 z m 446 840 b 642 671 568 840 642 775 b 443 500 642 567 568 500 l 236 500 l 236 840 z m 365 -206 l 422 -206 b 381 -318 422 -249 406 -283 l 444 -318 b 503 -146 481 -271 503 -221 l 503 -108 l 365 -108 z "},"Š":{"ha":838,"x_min":null,"x_max":null,"o":"m 519 1206 l 421 1101 l 321 1206 l 207 1206 l 344 1042 l 494 1042 l 633 1206 z m 206 714 b 394 851 206 797 275 851 b 625 672 515 851 596 797 l 760 672 b 397 961 725 874 579 961 b 75 706 189 961 75 842 b 654 250 75 324 654 539 b 438 93 654 156 579 93 b 186 267 301 93 217 154 l 53 267 b 436 -17 94 76 233 -17 b 785 267 638 -17 785 85 b 206 714 785 654 206 447 z "},"Ś":{"ha":838,"x_min":null,"x_max":null,"o":"m 353 1042 l 472 1042 l 639 1206 l 483 1206 z m 206 714 b 394 851 206 797 275 851 b 625 672 515 851 596 797 l 760 672 b 397 961 725 874 579 961 b 75 706 189 961 75 842 b 654 250 75 324 654 539 b 438 93 654 156 579 93 b 186 267 301 93 217 154 l 53 267 b 436 -17 94 76 233 -17 b 785 267 638 -17 785 85 b 206 714 785 654 206 447 z "},"Ş":{"ha":838,"x_min":null,"x_max":null,"o":"m 425 -185 b 254 -244 425 -222 367 -242 l 254 -307 b 525 -178 433 -303 525 -264 b 410 -78 525 -122 486 -87 l 443 -17 b 785 267 638 -17 785 85 b 206 714 785 654 206 447 b 394 851 206 797 275 851 b 625 672 515 851 596 797 l 760 672 b 397 961 725 874 579 961 b 75 706 189 961 75 842 b 654 250 75 324 654 539 b 438 93 654 156 579 93 b 186 267 301 93 217 154 l 53 267 b 369 -12 90 99 203 6 l 307 -129 b 425 -185 393 -137 425 -150 z "},"Ŝ":{"ha":838,"x_min":null,"x_max":null,"o":"m 519 1042 l 633 1042 l 494 1206 l 344 1206 l 207 1042 l 321 1042 l 421 1144 z m 206 714 b 394 851 206 797 275 851 b 625 672 515 851 596 797 l 760 672 b 397 961 725 874 579 961 b 75 706 189 961 75 842 b 654 250 75 324 654 539 b 438 93 654 156 579 93 b 186 267 301 93 217 154 l 53 267 b 436 -17 94 76 233 -17 b 785 267 638 -17 785 85 b 206 714 785 654 206 447 z "},"Ș":{"ha":838,"x_min":null,"x_max":null,"o":"m 206 714 b 394 851 206 797 275 851 b 625 672 515 851 596 797 l 760 672 b 397 961 725 874 579 961 b 75 706 189 961 75 842 b 654 250 75 324 654 539 b 438 93 654 156 579 93 b 186 267 301 93 217 154 l 53 267 b 436 -17 94 76 233 -17 b 785 267 638 -17 785 85 b 206 714 785 654 206 447 z m 353 -206 l 410 -206 b 368 -318 410 -249 393 -283 l 432 -318 b 490 -146 468 -271 490 -221 l 490 -108 l 353 -108 z "},"Ŧ":{"ha":861,"x_min":null,"x_max":null,"o":"m 367 0 l 494 0 l 494 440 l 639 440 l 639 529 l 494 529 l 494 836 l 818 836 l 818 944 l 43 944 l 43 836 l 367 836 l 367 529 l 222 529 l 222 440 l 367 440 z "},"Ť":{"ha":861,"x_min":null,"x_max":null,"o":"m 531 1206 l 432 1101 l 332 1206 l 218 1206 l 356 1042 l 506 1042 l 644 1206 z m 367 0 l 494 0 l 494 836 l 818 836 l 818 944 l 43 944 l 43 836 l 367 836 z "},"Ţ":{"ha":861,"x_min":null,"x_max":null,"o":"m 367 0 l 494 0 l 494 836 l 818 836 l 818 944 l 43 944 l 43 836 l 367 836 z m 364 -206 l 421 -206 b 379 -318 421 -249 404 -283 l 443 -318 b 501 -146 479 -271 501 -221 l 501 -108 l 364 -108 z "},"Ț":{"ha":861,"x_min":null,"x_max":null,"o":"m 367 0 l 494 0 l 494 836 l 818 836 l 818 944 l 43 944 l 43 836 l 367 836 z m 364 -206 l 421 -206 b 379 -318 421 -249 404 -283 l 443 -318 b 501 -146 479 -271 501 -221 l 501 -108 l 364 -108 z "},"Ú":{"ha":949,"x_min":null,"x_max":null,"o":"m 408 1042 l 528 1042 l 694 1206 l 539 1206 z m 851 360 l 851 944 l 724 944 l 724 360 b 475 86 724 190 631 86 b 226 360 319 86 226 189 l 226 944 l 97 944 l 97 360 b 475 -17 97 126 242 -17 b 851 360 707 -17 851 126 z "},"Û":{"ha":949,"x_min":null,"x_max":null,"o":"m 575 1042 l 689 1042 l 550 1206 l 400 1206 l 263 1042 l 376 1042 l 476 1144 z m 851 360 l 851 944 l 724 944 l 724 360 b 475 86 724 190 631 86 b 226 360 319 86 226 189 l 226 944 l 97 944 l 97 360 b 475 -17 97 126 242 -17 b 851 360 707 -17 851 126 z "},"Ü":{"ha":949,"x_min":null,"x_max":null,"o":"m 340 1042 l 447 1042 l 447 1206 l 340 1206 z m 503 1042 l 610 1042 l 610 1206 l 503 1206 z m 851 360 l 851 944 l 724 944 l 724 360 b 475 86 724 190 631 86 b 226 360 319 86 226 189 l 226 944 l 97 944 l 97 360 b 475 -17 97 126 242 -17 b 851 360 707 -17 851 126 z "},"Ù":{"ha":949,"x_min":null,"x_max":null,"o":"m 542 1042 l 411 1206 l 256 1206 l 422 1042 z m 851 360 l 851 944 l 724 944 l 724 360 b 475 86 724 190 631 86 b 226 360 319 86 226 189 l 226 944 l 97 944 l 97 360 b 475 -17 97 126 242 -17 b 851 360 707 -17 851 126 z "},"Ŭ":{"ha":949,"x_min":null,"x_max":null,"o":"m 274 1206 b 476 1042 293 1083 383 1042 b 676 1206 568 1042 657 1083 l 586 1206 b 476 1122 579 1146 531 1122 b 365 1206 421 1122 371 1146 z m 851 360 l 851 944 l 724 944 l 724 360 b 475 86 724 190 631 86 b 226 360 319 86 226 189 l 226 944 l 97 944 l 97 360 b 475 -17 97 126 242 -17 b 851 360 707 -17 851 126 z "},"Ű":{"ha":949,"x_min":null,"x_max":null,"o":"m 328 1042 l 421 1042 l 546 1206 l 428 1206 z m 524 1042 l 615 1042 l 742 1206 l 624 1206 z m 851 360 l 851 944 l 724 944 l 724 360 b 475 86 724 190 631 86 b 226 360 319 86 226 189 l 226 944 l 97 944 l 97 360 b 475 -17 97 126 242 -17 b 851 360 707 -17 851 126 z "},"Ū":{"ha":949,"x_min":null,"x_max":null,"o":"m 308 1076 l 642 1076 l 642 1172 l 308 1172 z m 851 360 l 851 944 l 724 944 l 724 360 b 475 86 724 190 631 86 b 226 360 319 86 226 189 l 226 944 l 97 944 l 97 360 b 475 -17 97 126 242 -17 b 851 360 707 -17 851 126 z "},"Ų":{"ha":949,"x_min":null,"x_max":null,"o":"m 474 -153 b 567 -8 474 -108 494 -65 b 851 360 744 25 851 158 l 851 944 l 724 944 l 724 360 b 475 86 724 190 631 86 b 226 360 319 86 226 189 l 226 944 l 97 944 l 97 360 b 471 -17 97 128 240 -15 b 375 -178 410 -68 375 -125 b 556 -324 375 -269 454 -324 b 656 -307 594 -324 621 -319 l 656 -232 b 579 -247 639 -240 618 -247 b 474 -153 511 -247 474 -208 z "},"Ů":{"ha":949,"x_min":null,"x_max":null,"o":"m 475 1042 b 615 1181 556 1042 615 1100 b 475 1322 615 1261 556 1322 b 335 1181 394 1322 335 1263 b 475 1042 335 1100 394 1042 z m 475 1110 b 408 1181 436 1110 408 1139 b 475 1253 408 1224 436 1253 b 542 1181 514 1253 542 1222 b 475 1110 542 1139 514 1110 z m 851 360 l 851 944 l 724 944 l 724 360 b 475 86 724 190 631 86 b 226 360 319 86 226 189 l 226 944 l 97 944 l 97 360 b 475 -17 97 126 242 -17 b 851 360 707 -17 851 126 z "},"Ũ":{"ha":949,"x_min":null,"x_max":null,"o":"m 336 1042 b 383 1125 339 1110 361 1125 b 572 1042 436 1125 474 1042 b 688 1206 624 1042 688 1074 l 614 1206 b 567 1121 611 1136 588 1121 b 378 1206 515 1121 478 1206 b 263 1042 326 1206 263 1172 z m 851 360 l 851 944 l 724 944 l 724 360 b 475 86 724 190 631 86 b 226 360 319 86 226 189 l 226 944 l 97 944 l 97 360 b 475 -17 97 126 242 -17 b 851 360 707 -17 851 126 z "},"Ẃ":{"ha":1458,"x_min":null,"x_max":null,"o":"m 676 1042 l 796 1042 l 963 1206 l 807 1206 z m 956 0 l 1106 0 l 1406 944 l 1275 944 l 1053 206 l 1035 135 l 1017 206 l 803 944 l 665 944 l 450 206 l 432 135 l 413 206 l 189 944 l 53 944 l 353 0 l 504 0 l 708 697 l 731 774 l 751 697 z "},"Ŵ":{"ha":1458,"x_min":null,"x_max":null,"o":"m 843 1042 l 957 1042 l 818 1206 l 668 1206 l 531 1042 l 644 1042 l 744 1144 z m 956 0 l 1106 0 l 1406 944 l 1275 944 l 1053 206 l 1035 135 l 1017 206 l 803 944 l 665 944 l 450 206 l 432 135 l 413 206 l 189 944 l 53 944 l 353 0 l 504 0 l 708 697 l 731 774 l 751 697 z "},"Ẅ":{"ha":1458,"x_min":null,"x_max":null,"o":"m 608 1042 l 715 1042 l 715 1206 l 608 1206 z m 771 1042 l 878 1042 l 878 1206 l 771 1206 z m 956 0 l 1106 0 l 1406 944 l 1275 944 l 1053 206 l 1035 135 l 1017 206 l 803 944 l 665 944 l 450 206 l 432 135 l 413 206 l 189 944 l 53 944 l 353 0 l 504 0 l 708 697 l 731 774 l 751 697 z "},"Ẁ":{"ha":1458,"x_min":null,"x_max":null,"o":"m 810 1042 l 679 1206 l 524 1206 l 690 1042 z m 956 0 l 1106 0 l 1406 944 l 1275 944 l 1053 206 l 1035 135 l 1017 206 l 803 944 l 665 944 l 450 206 l 432 135 l 413 206 l 189 944 l 53 944 l 353 0 l 504 0 l 708 697 l 731 774 l 751 697 z "},"Ý":{"ha":847,"x_min":null,"x_max":null,"o":"m 365 1042 l 485 1042 l 651 1206 l 496 1206 z m 360 0 l 488 0 l 488 349 l 826 944 l 690 944 l 469 551 l 428 461 l 385 551 l 164 944 l 21 944 l 360 349 z "},"Ÿ":{"ha":847,"x_min":null,"x_max":null,"o":"m 297 1042 l 404 1042 l 404 1206 l 297 1206 z m 460 1042 l 567 1042 l 567 1206 l 460 1206 z m 360 0 l 488 0 l 488 349 l 826 944 l 690 944 l 469 551 l 428 461 l 385 551 l 164 944 l 21 944 l 360 349 z "},"Ŷ":{"ha":847,"x_min":null,"x_max":null,"o":"m 532 1042 l 646 1042 l 507 1206 l 357 1206 l 219 1042 l 333 1042 l 433 1144 z m 360 0 l 488 0 l 488 349 l 826 944 l 690 944 l 469 551 l 428 461 l 385 551 l 164 944 l 21 944 l 360 349 z "},"Ỳ":{"ha":847,"x_min":null,"x_max":null,"o":"m 499 1042 l 368 1206 l 213 1206 l 379 1042 z m 360 0 l 488 0 l 488 349 l 826 944 l 690 944 l 469 551 l 428 461 l 385 551 l 164 944 l 21 944 l 360 349 z "},"Ž":{"ha":856,"x_min":null,"x_max":null,"o":"m 528 1206 l 429 1101 l 329 1206 l 215 1206 l 353 1042 l 503 1042 l 642 1206 z m 71 0 l 783 0 l 783 108 l 219 108 l 783 836 l 783 944 l 71 944 l 71 836 l 635 836 l 71 108 z "},"Ź":{"ha":856,"x_min":null,"x_max":null,"o":"m 361 1042 l 481 1042 l 647 1206 l 492 1206 z m 71 0 l 783 0 l 783 108 l 219 108 l 783 836 l 783 944 l 71 944 l 71 836 l 635 836 l 71 108 z "},"Ż":{"ha":856,"x_min":null,"x_max":null,"o":"m 367 1042 l 489 1042 l 489 1206 l 367 1206 z m 71 0 l 783 0 l 783 108 l 219 108 l 783 836 l 783 944 l 71 944 l 71 836 l 635 836 l 71 108 z "},"á":{"ha":794,"x_min":null,"x_max":null,"o":"m 331 836 l 450 836 l 617 1000 l 461 1000 z m 210 497 b 388 650 225 592 282 650 b 569 465 514 650 569 585 l 569 449 b 226 406 428 447 326 439 b 63 194 118 369 63 296 b 318 -17 63 54 165 -17 b 569 117 407 -17 507 24 b 589 0 571 72 575 29 l 718 0 b 692 178 699 40 692 93 l 692 468 b 399 756 692 640 596 756 b 88 497 218 756 111 660 z m 188 197 b 569 357 188 288 256 354 l 569 322 b 331 89 569 196 467 89 b 188 197 244 89 188 129 z "},"â":{"ha":794,"x_min":null,"x_max":null,"o":"m 497 836 l 611 836 l 472 1000 l 322 1000 l 185 836 l 299 836 l 399 939 z m 210 497 b 388 650 225 592 282 650 b 569 465 514 650 569 585 l 569 449 b 226 406 428 447 326 439 b 63 194 118 369 63 296 b 318 -17 63 54 165 -17 b 569 117 407 -17 507 24 b 589 0 571 72 575 29 l 718 0 b 692 178 699 40 692 93 l 692 468 b 399 756 692 640 596 756 b 88 497 218 756 111 660 z m 188 197 b 569 357 188 288 256 354 l 569 322 b 331 89 569 196 467 89 b 188 197 244 89 188 129 z "},"ä":{"ha":794,"x_min":null,"x_max":null,"o":"m 263 836 l 369 836 l 369 1000 l 263 1000 z m 425 836 l 532 836 l 532 1000 l 425 1000 z m 210 497 b 388 650 225 592 282 650 b 569 465 514 650 569 585 l 569 449 b 226 406 428 447 326 439 b 63 194 118 369 63 296 b 318 -17 63 54 165 -17 b 569 117 407 -17 507 24 b 589 0 571 72 575 29 l 718 0 b 692 178 699 40 692 93 l 692 468 b 399 756 692 640 596 756 b 88 497 218 756 111 660 z m 188 197 b 569 357 188 288 256 354 l 569 322 b 331 89 569 196 467 89 b 188 197 244 89 188 129 z "},"à":{"ha":794,"x_min":null,"x_max":null,"o":"m 464 836 l 333 1000 l 178 1000 l 344 836 z m 210 497 b 388 650 225 592 282 650 b 569 465 514 650 569 585 l 569 449 b 226 406 428 447 326 439 b 63 194 118 369 63 296 b 318 -17 63 54 165 -17 b 569 117 407 -17 507 24 b 589 0 571 72 575 29 l 718 0 b 692 178 699 40 692 93 l 692 468 b 399 756 692 640 596 756 b 88 497 218 756 111 660 z m 188 197 b 569 357 188 288 256 354 l 569 322 b 331 89 569 196 467 89 b 188 197 244 89 188 129 z "},"å":{"ha":794,"x_min":null,"x_max":null,"o":"m 397 836 b 538 975 478 836 538 894 b 397 1117 538 1056 478 1117 b 257 975 317 1117 257 1057 b 397 836 257 894 317 836 z m 397 904 b 331 975 358 904 331 933 b 397 1047 331 1018 358 1047 b 464 975 436 1047 464 1017 b 397 904 464 933 436 904 z m 210 497 b 388 650 225 592 282 650 b 569 465 514 650 569 585 l 569 449 b 226 406 428 447 326 439 b 63 194 118 369 63 296 b 318 -17 63 54 165 -17 b 569 117 407 -17 507 24 b 589 0 571 72 575 29 l 718 0 b 692 178 699 40 692 93 l 692 468 b 399 756 692 640 596 756 b 88 497 218 756 111 660 z m 188 197 b 569 357 188 288 256 354 l 569 322 b 331 89 569 196 467 89 b 188 197 244 89 188 129 z "},"ã":{"ha":794,"x_min":null,"x_max":null,"o":"m 258 836 b 306 919 261 904 283 919 b 494 836 358 919 396 836 b 610 1000 546 836 610 868 l 536 1000 b 489 915 533 931 511 915 b 300 1000 438 915 400 1000 b 185 836 249 1000 185 967 z m 210 497 b 388 650 225 592 282 650 b 569 465 514 650 569 585 l 569 449 b 226 406 428 447 326 439 b 63 194 118 369 63 296 b 318 -17 63 54 165 -17 b 569 117 407 -17 507 24 b 589 0 571 72 575 29 l 718 0 b 692 178 699 40 692 93 l 692 468 b 399 756 692 640 596 756 b 88 497 218 756 111 660 z m 188 197 b 569 357 188 288 256 354 l 569 322 b 331 89 569 196 467 89 b 188 197 244 89 188 129 z "},"ă":{"ha":794,"x_min":null,"x_max":null,"o":"m 196 1000 b 399 836 215 878 306 836 b 599 1000 490 836 579 878 l 508 1000 b 399 917 501 940 454 917 b 288 1000 343 917 294 940 z m 210 497 b 388 650 225 592 282 650 b 569 465 514 650 569 585 l 569 449 b 226 406 428 447 326 439 b 63 194 118 369 63 296 b 318 -17 63 54 165 -17 b 569 117 407 -17 507 24 b 589 0 571 72 575 29 l 718 0 b 692 178 699 40 692 93 l 692 468 b 399 756 692 640 596 756 b 88 497 218 756 111 660 z m 188 197 b 569 357 188 288 256 354 l 569 322 b 331 89 569 196 467 89 b 188 197 244 89 188 129 z "},"ā":{"ha":794,"x_min":null,"x_max":null,"o":"m 231 871 l 564 871 l 564 967 l 231 967 z m 210 497 b 388 650 225 592 282 650 b 569 465 514 650 569 585 l 569 449 b 226 406 428 447 326 439 b 63 194 118 369 63 296 b 318 -17 63 54 165 -17 b 569 117 407 -17 507 24 b 589 0 571 72 575 29 l 718 0 b 692 178 699 40 692 93 l 692 468 b 399 756 692 640 596 756 b 88 497 218 756 111 660 z m 188 197 b 569 357 188 288 256 354 l 569 322 b 331 89 569 196 467 89 b 188 197 244 89 188 129 z "},"ą":{"ha":794,"x_min":null,"x_max":null,"o":"m 210 497 b 388 650 225 592 282 650 b 569 465 514 650 569 585 l 569 449 b 226 406 428 447 326 439 b 63 194 118 369 63 296 b 318 -17 63 54 165 -17 b 569 135 410 -17 508 33 b 582 19 569 94 572 51 b 438 -178 490 -42 438 -112 b 618 -324 438 -269 517 -324 b 718 -307 657 -324 683 -319 l 718 -232 b 642 -247 701 -240 681 -247 b 536 -153 574 -247 536 -208 b 640 0 536 -107 558 -61 l 718 0 b 692 178 699 40 692 93 l 692 468 b 399 756 692 640 596 756 b 88 497 218 756 111 660 z m 188 197 b 569 357 188 288 256 354 l 569 322 b 331 89 569 196 467 89 b 188 197 244 89 188 129 z "},"ç":{"ha":767,"x_min":null,"x_max":null,"o":"m 406 -185 b 235 -244 406 -222 347 -242 l 235 -307 b 506 -178 414 -303 506 -264 b 390 -78 506 -122 467 -87 l 425 -15 b 713 246 571 -6 682 74 l 590 246 b 397 88 567 140 496 88 b 185 368 261 88 185 189 b 393 650 185 550 257 650 b 585 483 490 650 565 596 l 707 483 b 393 756 683 664 556 756 b 60 368 188 756 60 618 b 349 -14 60 147 167 6 l 288 -129 b 406 -185 374 -137 406 -150 z "},"ć":{"ha":767,"x_min":null,"x_max":null,"o":"m 317 836 l 436 836 l 603 1000 l 447 1000 z m 707 483 b 393 756 683 664 556 756 b 60 368 188 756 60 618 b 394 -17 60 129 185 -17 b 713 246 556 -17 679 63 l 590 246 b 397 88 567 140 496 88 b 185 368 261 88 185 189 b 393 650 185 550 257 650 b 585 483 490 650 565 596 z "},"č":{"ha":767,"x_min":null,"x_max":null,"o":"m 483 1000 l 385 896 l 285 1000 l 171 1000 l 308 836 l 458 836 l 597 1000 z m 707 483 b 393 756 683 664 556 756 b 60 368 188 756 60 618 b 394 -17 60 129 185 -17 b 713 246 556 -17 679 63 l 590 246 b 397 88 567 140 496 88 b 185 368 261 88 185 189 b 393 650 185 550 257 650 b 585 483 490 650 565 596 z "},"ĉ":{"ha":767,"x_min":null,"x_max":null,"o":"m 483 836 l 597 836 l 458 1000 l 308 1000 l 171 836 l 285 836 l 385 939 z m 707 483 b 393 756 683 664 556 756 b 60 368 188 756 60 618 b 394 -17 60 129 185 -17 b 713 246 556 -17 679 63 l 590 246 b 397 88 567 140 496 88 b 185 368 261 88 185 189 b 393 650 185 550 257 650 b 585 483 490 650 565 596 z "},"ċ":{"ha":767,"x_min":null,"x_max":null,"o":"m 322 836 l 444 836 l 444 1000 l 322 1000 z m 707 483 b 393 756 683 664 556 756 b 60 368 188 756 60 618 b 394 -17 60 129 185 -17 b 713 246 556 -17 679 63 l 590 246 b 397 88 567 140 496 88 b 185 368 261 88 185 189 b 393 650 185 550 257 650 b 585 483 490 650 565 596 z "},"ď":{"ha":831,"x_min":null,"x_max":null,"o":"m 374 -17 b 581 93 461 -17 532 24 l 581 0 l 703 0 l 703 1000 l 581 1000 l 581 651 b 374 756 532 719 461 756 b 60 368 181 756 60 618 b 374 -17 60 128 178 -17 z m 749 903 l 804 903 b 764 790 804 860 794 831 l 828 790 b 885 963 863 838 885 888 l 885 1000 l 749 1000 z m 382 89 b 185 368 257 89 185 190 b 382 650 185 550 254 650 b 581 368 508 650 581 547 b 382 89 581 188 511 89 z "},"đ":{"ha":800,"x_min":null,"x_max":null,"o":"m 374 -17 b 581 93 461 -17 532 24 l 581 0 l 703 0 l 703 846 l 776 846 l 776 935 l 703 935 l 703 1000 l 581 1000 l 581 935 l 443 935 l 443 846 l 581 846 l 581 651 b 374 756 532 719 461 756 b 60 368 181 756 60 618 b 374 -17 60 128 178 -17 z m 382 89 b 185 368 257 89 185 190 b 382 650 185 550 254 650 b 581 368 508 650 581 547 b 382 89 581 188 511 89 z "},"é":{"ha":794,"x_min":null,"x_max":null,"o":"m 331 836 l 450 836 l 617 1000 l 461 1000 z m 735 240 l 607 240 b 403 89 581 139 507 89 b 185 347 269 89 192 182 l 729 347 l 729 378 b 396 756 729 613 604 756 b 60 368 189 756 60 618 b 403 -17 60 128 189 -17 b 735 240 571 -17 694 68 z m 396 650 b 601 439 511 650 585 575 l 189 439 b 396 650 207 576 278 650 z "},"ê":{"ha":794,"x_min":null,"x_max":null,"o":"m 497 836 l 611 836 l 472 1000 l 322 1000 l 185 836 l 299 836 l 399 939 z m 735 240 l 607 240 b 403 89 581 139 507 89 b 185 347 269 89 192 182 l 729 347 l 729 378 b 396 756 729 613 604 756 b 60 368 189 756 60 618 b 403 -17 60 128 189 -17 b 735 240 571 -17 694 68 z m 396 650 b 601 439 511 650 585 575 l 189 439 b 396 650 207 576 278 650 z "},"ë":{"ha":794,"x_min":null,"x_max":null,"o":"m 263 836 l 369 836 l 369 1000 l 263 1000 z m 425 836 l 532 836 l 532 1000 l 425 1000 z m 735 240 l 607 240 b 403 89 581 139 507 89 b 185 347 269 89 192 182 l 729 347 l 729 378 b 396 756 729 613 604 756 b 60 368 189 756 60 618 b 403 -17 60 128 189 -17 b 735 240 571 -17 694 68 z m 396 650 b 601 439 511 650 585 575 l 189 439 b 396 650 207 576 278 650 z "},"è":{"ha":794,"x_min":null,"x_max":null,"o":"m 464 836 l 333 1000 l 178 1000 l 344 836 z m 735 240 l 607 240 b 403 89 581 139 507 89 b 185 347 269 89 192 182 l 729 347 l 729 378 b 396 756 729 613 604 756 b 60 368 189 756 60 618 b 403 -17 60 128 189 -17 b 735 240 571 -17 694 68 z m 396 650 b 601 439 511 650 585 575 l 189 439 b 396 650 207 576 278 650 z "},"ĕ":{"ha":794,"x_min":null,"x_max":null,"o":"m 196 1000 b 399 836 215 878 306 836 b 599 1000 490 836 579 878 l 508 1000 b 399 917 501 940 454 917 b 288 1000 343 917 294 940 z m 735 240 l 607 240 b 403 89 581 139 507 89 b 185 347 269 89 192 182 l 729 347 l 729 378 b 396 756 729 613 604 756 b 60 368 189 756 60 618 b 403 -17 60 128 189 -17 b 735 240 571 -17 694 68 z m 396 650 b 601 439 511 650 585 575 l 189 439 b 396 650 207 576 278 650 z "},"ě":{"ha":794,"x_min":null,"x_max":null,"o":"m 497 1000 l 399 896 l 299 1000 l 185 1000 l 322 836 l 472 836 l 611 1000 z m 735 240 l 607 240 b 403 89 581 139 507 89 b 185 347 269 89 192 182 l 729 347 l 729 378 b 396 756 729 613 604 756 b 60 368 189 756 60 618 b 403 -17 60 128 189 -17 b 735 240 571 -17 694 68 z m 396 650 b 601 439 511 650 585 575 l 189 439 b 396 650 207 576 278 650 z "},"ė":{"ha":794,"x_min":null,"x_max":null,"o":"m 336 836 l 458 836 l 458 1000 l 336 1000 z m 735 240 l 607 240 b 403 89 581 139 507 89 b 185 347 269 89 192 182 l 729 347 l 729 378 b 396 756 729 613 604 756 b 60 368 189 756 60 618 b 403 -17 60 128 189 -17 b 735 240 571 -17 694 68 z m 396 650 b 601 439 511 650 585 575 l 189 439 b 396 650 207 576 278 650 z "},"ē":{"ha":794,"x_min":null,"x_max":null,"o":"m 231 871 l 564 871 l 564 967 l 231 967 z m 735 240 l 607 240 b 403 89 581 139 507 89 b 185 347 269 89 192 182 l 729 347 l 729 378 b 396 756 729 613 604 756 b 60 368 189 756 60 618 b 403 -17 60 128 189 -17 b 735 240 571 -17 694 68 z m 396 650 b 601 439 511 650 585 575 l 189 439 b 396 650 207 576 278 650 z "},"ę":{"ha":794,"x_min":null,"x_max":null,"o":"m 475 -153 b 622 51 475 -99 503 -58 b 735 240 676 93 715 157 l 607 240 b 403 89 581 139 507 89 b 185 347 269 89 192 182 l 729 347 l 729 378 b 396 756 729 613 604 756 b 60 368 189 756 60 618 b 403 -17 60 128 189 -17 b 481 -10 431 -17 456 -14 b 376 -178 414 -64 376 -122 b 557 -324 376 -269 456 -324 b 657 -307 596 -324 622 -319 l 657 -232 b 581 -247 640 -240 619 -247 b 475 -153 513 -247 475 -208 z m 396 650 b 601 439 511 650 585 575 l 189 439 b 396 650 207 576 278 650 z "},"ğ":{"ha":801,"x_min":null,"x_max":null,"o":"m 186 1000 b 389 836 206 878 296 836 b 589 1000 481 836 569 878 l 499 1000 b 389 917 492 940 444 917 b 278 1000 333 917 285 940 z m 360 -6 b 581 100 454 -6 529 31 l 581 -26 b 400 -222 581 -164 508 -222 b 201 -72 293 -222 217 -169 l 79 -72 b 401 -324 106 -240 228 -324 b 703 -22 571 -324 703 -228 l 703 738 l 581 738 l 581 657 b 360 756 532 721 458 756 b 60 374 175 756 60 621 b 360 -6 60 138 172 -6 z m 382 100 b 185 374 256 100 185 200 b 382 650 185 553 254 650 b 581 375 508 650 581 549 b 382 100 581 197 511 100 z "},"ĝ":{"ha":801,"x_min":null,"x_max":null,"o":"m 488 836 l 601 836 l 463 1000 l 313 1000 l 175 836 l 289 836 l 389 939 z m 360 -6 b 581 100 454 -6 529 31 l 581 -26 b 400 -222 581 -164 508 -222 b 201 -72 293 -222 217 -169 l 79 -72 b 401 -324 106 -240 228 -324 b 703 -22 571 -324 703 -228 l 703 738 l 581 738 l 581 657 b 360 756 532 721 458 756 b 60 374 175 756 60 621 b 360 -6 60 138 172 -6 z m 382 100 b 185 374 256 100 185 200 b 382 650 185 553 254 650 b 581 375 508 650 581 549 b 382 100 581 197 511 100 z "},"ģ":{"ha":801,"x_min":null,"x_max":null,"o":"m 458 933 l 403 933 b 443 1044 403 975 418 1010 l 379 1044 b 321 874 343 997 321 949 l 321 836 l 458 836 z m 360 -6 b 581 100 454 -6 529 31 l 581 -26 b 400 -222 581 -164 508 -222 b 201 -72 293 -222 217 -169 l 79 -72 b 401 -324 106 -240 228 -324 b 703 -22 571 -324 703 -228 l 703 738 l 581 738 l 581 657 b 360 756 532 721 458 756 b 60 374 175 756 60 621 b 360 -6 60 138 172 -6 z m 382 100 b 185 374 256 100 185 200 b 382 650 185 553 254 650 b 581 375 508 650 581 549 b 382 100 581 197 511 100 z "},"ġ":{"ha":801,"x_min":null,"x_max":null,"o":"m 326 836 l 449 836 l 449 1000 l 326 1000 z m 360 -6 b 581 100 454 -6 529 31 l 581 -26 b 400 -222 581 -164 508 -222 b 201 -72 293 -222 217 -169 l 79 -72 b 401 -324 106 -240 228 -324 b 703 -22 571 -324 703 -228 l 703 738 l 581 738 l 581 657 b 360 756 532 721 458 756 b 60 374 175 756 60 621 b 360 -6 60 138 172 -6 z m 382 100 b 185 374 256 100 185 200 b 382 650 185 553 254 650 b 581 375 508 650 581 549 b 382 100 581 197 511 100 z "},"ħ":{"ha":794,"x_min":null,"x_max":null,"o":"m 97 0 l 219 0 l 219 436 b 414 651 219 542 292 651 b 575 468 525 651 575 579 l 575 0 l 697 0 l 697 493 b 447 756 697 664 604 756 b 219 638 350 756 269 715 l 219 846 l 383 846 l 383 935 l 219 935 l 219 1000 l 97 1000 l 97 935 l 36 935 l 36 846 l 97 846 z "},"ĥ":{"ha":794,"x_min":null,"x_max":null,"o":"m 418 1058 l 532 1058 l 393 1222 l 243 1222 l 106 1058 l 219 1058 l 319 1161 z m 97 0 l 219 0 l 219 436 b 414 651 219 542 292 651 b 575 468 525 651 575 579 l 575 0 l 697 0 l 697 493 b 447 756 697 664 604 756 b 219 638 350 756 269 715 l 219 1000 l 97 1000 z "},"í":{"ha":317,"x_min":null,"x_max":null,"o":"m 92 836 l 211 836 l 378 1000 l 222 1000 z m 97 0 l 219 0 l 219 738 l 97 738 z "},"î":{"ha":317,"x_min":null,"x_max":null,"o":"m 258 836 l 372 836 l 233 1000 l 83 1000 l -54 836 l 60 836 l 160 939 z m 97 0 l 219 0 l 219 738 l 97 738 z "},"ï":{"ha":317,"x_min":null,"x_max":null,"o":"m 24 836 l 131 836 l 131 1000 l 24 1000 z m 186 836 l 293 836 l 293 1000 l 186 1000 z m 97 0 l 219 0 l 219 738 l 97 738 z "},"ì":{"ha":317,"x_min":null,"x_max":null,"o":"m 225 836 l 94 1000 l -61 1000 l 106 836 z m 97 0 l 219 0 l 219 738 l 97 738 z "},"ĭ":{"ha":317,"x_min":null,"x_max":null,"o":"m -43 1000 b 160 836 -24 878 67 836 b 360 1000 251 836 340 878 l 269 1000 b 160 917 263 940 215 917 b 49 1000 104 917 56 940 z m 97 0 l 219 0 l 219 738 l 97 738 z "},"":{"ha":317,"x_min":null,"x_max":null,"o":"m 97 836 l 219 836 l 219 1000 l 97 1000 z m 97 0 l 219 0 l 219 738 l 97 738 z "},"ī":{"ha":317,"x_min":null,"x_max":null,"o":"m -8 871 l 325 871 l 325 967 l -8 967 z m 97 0 l 219 0 l 219 738 l 97 738 z "},"į":{"ha":317,"x_min":null,"x_max":null,"o":"m 97 836 l 219 836 l 219 1000 l 97 1000 z m 38 -153 b 142 0 38 -107 60 -61 l 219 0 l 219 738 l 97 738 l 97 29 b -61 -178 -3 -35 -61 -108 b 119 -324 -61 -269 18 -324 b 219 -307 158 -324 185 -319 l 219 -232 b 143 -247 203 -240 182 -247 b 38 -153 75 -247 38 -208 z "},"ĩ":{"ha":317,"x_min":null,"x_max":null,"o":"m 19 836 b 67 919 22 904 44 919 b 256 836 119 919 157 836 b 371 1000 307 836 371 868 l 297 1000 b 250 915 294 931 272 915 b 61 1000 199 915 161 1000 b -54 836 10 1000 -54 967 z m 97 0 l 219 0 l 219 738 l 97 738 z "},"ĵ":{"ha":317,"x_min":null,"x_max":null,"o":"m 258 836 l 372 836 l 233 1000 l 83 1000 l -54 836 l 60 836 l 160 939 z m 219 -94 l 219 738 l 97 738 l 97 -94 b -36 -225 97 -183 71 -225 l -49 -225 l -49 -312 b 19 -324 -36 -318 -11 -324 b 219 -94 156 -324 219 -250 z "},"ĳ":{"ha":633,"x_min":null,"x_max":null,"o":"m 97 836 l 219 836 l 219 1000 l 97 1000 z m 414 836 l 536 836 l 536 1000 l 414 1000 z m 97 0 l 219 0 l 219 738 l 97 738 z m 536 -94 l 536 738 l 414 738 l 414 -94 b 281 -225 414 -183 388 -225 l 268 -225 l 268 -312 b 336 -324 281 -318 306 -324 b 536 -94 472 -324 536 -250 z "},"ķ":{"ha":728,"x_min":null,"x_max":null,"o":"m 97 0 l 219 0 l 219 376 l 551 0 l 707 0 l 351 408 l 688 738 l 538 738 l 219 421 l 219 1000 l 97 1000 z m 297 -206 l 354 -206 b 313 -318 354 -249 338 -283 l 376 -318 b 435 -146 413 -271 435 -221 l 435 -108 l 297 -108 z "},"ĺ":{"ha":317,"x_min":null,"x_max":null,"o":"m 96 1058 l 215 1058 l 382 1222 l 226 1222 z m 97 0 l 219 0 l 219 1000 l 97 1000 z "},"ľ":{"ha":353,"x_min":null,"x_max":null,"o":"m 97 0 l 219 0 l 219 1000 l 97 1000 z m 271 903 l 326 903 b 286 790 326 860 317 831 l 350 790 b 407 963 385 838 407 888 l 407 1000 l 271 1000 z "},"ļ":{"ha":317,"x_min":null,"x_max":null,"o":"m 97 0 l 219 0 l 219 1000 l 97 1000 z m 92 -206 l 149 -206 b 107 -318 149 -249 132 -283 l 171 -318 b 229 -146 207 -271 229 -221 l 229 -108 l 92 -108 z "},"ŀ":{"ha":328,"x_min":null,"x_max":null,"o":"m 97 0 l 219 0 l 219 1000 l 97 1000 z m 264 340 l 386 340 l 386 503 l 264 503 z "},"ñ":{"ha":794,"x_min":null,"x_max":null,"o":"m 258 836 b 306 919 261 904 283 919 b 494 836 358 919 396 836 b 610 1000 546 836 610 868 l 536 1000 b 489 915 533 931 511 915 b 300 1000 438 915 400 1000 b 185 836 249 1000 185 967 z m 97 0 l 219 0 l 219 436 b 414 651 219 542 292 651 b 575 468 525 651 575 579 l 575 0 l 697 0 l 697 493 b 447 756 697 664 604 756 b 219 638 350 756 269 715 l 219 738 l 97 738 z "},"ń":{"ha":794,"x_min":null,"x_max":null,"o":"m 331 836 l 450 836 l 617 1000 l 461 1000 z m 97 0 l 219 0 l 219 436 b 414 651 219 542 292 651 b 575 468 525 651 575 579 l 575 0 l 697 0 l 697 493 b 447 756 697 664 604 756 b 219 638 350 756 269 715 l 219 738 l 97 738 z "},"ň":{"ha":794,"x_min":null,"x_max":null,"o":"m 497 1000 l 399 896 l 299 1000 l 185 1000 l 322 836 l 472 836 l 611 1000 z m 97 0 l 219 0 l 219 436 b 414 651 219 542 292 651 b 575 468 525 651 575 579 l 575 0 l 697 0 l 697 493 b 447 756 697 664 604 756 b 219 638 350 756 269 715 l 219 738 l 97 738 z "},"ņ":{"ha":794,"x_min":null,"x_max":null,"o":"m 97 0 l 219 0 l 219 436 b 414 651 219 542 292 651 b 575 468 525 651 575 579 l 575 0 l 697 0 l 697 493 b 447 756 697 664 604 756 b 219 638 350 756 269 715 l 219 738 l 97 738 z m 331 -206 l 388 -206 b 346 -318 388 -249 371 -283 l 410 -318 b 468 -146 446 -271 468 -221 l 468 -108 l 331 -108 z "},"ó":{"ha":794,"x_min":null,"x_max":null,"o":"m 331 836 l 450 836 l 617 1000 l 461 1000 z m 397 -17 b 735 368 604 -17 735 119 b 397 756 735 608 608 756 b 60 368 190 756 60 618 b 397 -17 60 128 186 -17 z m 397 89 b 185 368 261 89 185 190 b 397 650 185 550 260 650 b 610 368 533 650 610 547 b 397 89 610 188 535 89 z "},"ô":{"ha":794,"x_min":null,"x_max":null,"o":"m 497 836 l 611 836 l 472 1000 l 322 1000 l 185 836 l 299 836 l 399 939 z m 397 -17 b 735 368 604 -17 735 119 b 397 756 735 608 608 756 b 60 368 190 756 60 618 b 397 -17 60 128 186 -17 z m 397 89 b 185 368 261 89 185 190 b 397 650 185 550 260 650 b 610 368 533 650 610 547 b 397 89 610 188 535 89 z "},"ö":{"ha":794,"x_min":null,"x_max":null,"o":"m 263 836 l 369 836 l 369 1000 l 263 1000 z m 425 836 l 532 836 l 532 1000 l 425 1000 z m 397 -17 b 735 368 604 -17 735 119 b 397 756 735 608 608 756 b 60 368 190 756 60 618 b 397 -17 60 128 186 -17 z m 397 89 b 185 368 261 89 185 190 b 397 650 185 550 260 650 b 610 368 533 650 610 547 b 397 89 610 188 535 89 z "},"ò":{"ha":794,"x_min":null,"x_max":null,"o":"m 464 836 l 333 1000 l 178 1000 l 344 836 z m 397 -17 b 735 368 604 -17 735 119 b 397 756 735 608 608 756 b 60 368 190 756 60 618 b 397 -17 60 128 186 -17 z m 397 89 b 185 368 261 89 185 190 b 397 650 185 550 260 650 b 610 368 533 650 610 547 b 397 89 610 188 535 89 z "},"õ":{"ha":794,"x_min":null,"x_max":null,"o":"m 258 836 b 306 919 261 904 283 919 b 494 836 358 919 396 836 b 610 1000 546 836 610 868 l 536 1000 b 489 915 533 931 511 915 b 300 1000 438 915 400 1000 b 185 836 249 1000 185 967 z m 397 -17 b 735 368 604 -17 735 119 b 397 756 735 608 608 756 b 60 368 190 756 60 618 b 397 -17 60 128 186 -17 z m 397 89 b 185 368 261 89 185 190 b 397 650 185 550 260 650 b 610 368 533 650 610 547 b 397 89 610 188 535 89 z "},"ŏ":{"ha":794,"x_min":null,"x_max":null,"o":"m 196 1000 b 399 836 215 878 306 836 b 599 1000 490 836 579 878 l 508 1000 b 399 917 501 940 454 917 b 288 1000 343 917 294 940 z m 397 -17 b 735 368 604 -17 735 119 b 397 756 735 608 608 756 b 60 368 190 756 60 618 b 397 -17 60 128 186 -17 z m 397 89 b 185 368 261 89 185 190 b 397 650 185 550 260 650 b 610 368 533 650 610 547 b 397 89 610 188 535 89 z "},"ő":{"ha":794,"x_min":null,"x_max":null,"o":"m 250 836 l 343 836 l 468 1000 l 350 1000 z m 446 836 l 538 836 l 664 1000 l 546 1000 z m 397 -17 b 735 368 604 -17 735 119 b 397 756 735 608 608 756 b 60 368 190 756 60 618 b 397 -17 60 128 186 -17 z m 397 89 b 185 368 261 89 185 190 b 397 650 185 550 260 650 b 610 368 533 650 610 547 b 397 89 610 188 535 89 z "},"ō":{"ha":794,"x_min":null,"x_max":null,"o":"m 231 871 l 564 871 l 564 967 l 231 967 z m 397 -17 b 735 368 604 -17 735 119 b 397 756 735 608 608 756 b 60 368 190 756 60 618 b 397 -17 60 128 186 -17 z m 397 89 b 185 368 261 89 185 190 b 397 650 185 550 260 650 b 610 368 533 650 610 547 b 397 89 610 188 535 89 z "},"ŕ":{"ha":518,"x_min":null,"x_max":null,"o":"m 199 836 l 318 836 l 485 1000 l 329 1000 z m 97 0 l 219 0 l 219 413 b 431 638 219 546 283 638 b 507 628 460 638 486 635 l 507 738 b 438 756 493 749 467 756 b 219 624 349 756 269 714 l 219 738 l 97 738 z "},"ř":{"ha":518,"x_min":null,"x_max":null,"o":"m 365 1000 l 267 896 l 167 1000 l 53 1000 l 190 836 l 340 836 l 479 1000 z m 97 0 l 219 0 l 219 413 b 431 638 219 546 283 638 b 507 628 460 638 486 635 l 507 738 b 438 756 493 749 467 756 b 219 624 349 756 269 714 l 219 738 l 97 738 z "},"ŗ":{"ha":518,"x_min":null,"x_max":null,"o":"m 97 0 l 219 0 l 219 413 b 431 638 219 546 283 638 b 507 628 460 638 486 635 l 507 738 b 438 756 493 749 467 756 b 219 624 349 756 269 714 l 219 738 l 97 738 z m 100 -206 l 157 -206 b 115 -318 157 -249 140 -283 l 179 -318 b 238 -146 215 -271 238 -221 l 238 -108 l 100 -108 z "},"š":{"ha":715,"x_min":null,"x_max":null,"o":"m 458 1000 l 360 896 l 260 1000 l 146 1000 l 283 836 l 433 836 l 572 1000 z m 188 549 b 332 656 188 610 240 656 b 518 497 436 656 500 613 l 640 497 b 339 756 617 681 499 756 b 71 540 158 756 71 653 b 544 200 71 235 544 401 b 375 81 544 131 486 81 b 168 240 261 81 185 138 l 46 240 b 371 -17 74 67 196 -17 b 667 208 544 -17 667 71 b 188 549 667 513 188 343 z "},"ś":{"ha":715,"x_min":null,"x_max":null,"o":"m 292 836 l 411 836 l 578 1000 l 422 1000 z m 188 549 b 332 656 188 610 240 656 b 518 497 436 656 500 613 l 640 497 b 339 756 617 681 499 756 b 71 540 158 756 71 653 b 544 200 71 235 544 401 b 375 81 544 131 486 81 b 168 240 261 81 185 138 l 46 240 b 371 -17 74 67 196 -17 b 667 208 544 -17 667 71 b 188 549 667 513 188 343 z "},"ş":{"ha":715,"x_min":null,"x_max":null,"o":"m 390 -185 b 219 -244 390 -222 332 -242 l 219 -307 b 490 -178 399 -303 490 -264 b 375 -78 490 -122 451 -87 l 410 -15 b 667 208 563 -3 667 82 b 188 549 667 513 188 343 b 332 656 188 610 240 656 b 518 497 436 656 500 613 l 640 497 b 339 756 617 681 499 756 b 71 540 158 756 71 653 b 544 200 71 235 544 401 b 375 81 544 131 486 81 b 168 240 261 81 185 138 l 46 240 b 333 -15 72 79 179 -4 l 272 -129 b 390 -185 358 -137 390 -150 z "},"ŝ":{"ha":715,"x_min":null,"x_max":null,"o":"m 458 836 l 572 836 l 433 1000 l 283 1000 l 146 836 l 260 836 l 360 939 z m 188 549 b 332 656 188 610 240 656 b 518 497 436 656 500 613 l 640 497 b 339 756 617 681 499 756 b 71 540 158 756 71 653 b 544 200 71 235 544 401 b 375 81 544 131 486 81 b 168 240 261 81 185 138 l 46 240 b 371 -17 74 67 196 -17 b 667 208 544 -17 667 71 b 188 549 667 513 188 343 z "},"ș":{"ha":715,"x_min":null,"x_max":null,"o":"m 188 549 b 332 656 188 610 240 656 b 518 497 436 656 500 613 l 640 497 b 339 756 617 681 499 756 b 71 540 158 756 71 653 b 544 200 71 235 544 401 b 375 81 544 131 486 81 b 168 240 261 81 185 138 l 46 240 b 371 -17 74 67 196 -17 b 667 208 544 -17 667 71 b 188 549 667 513 188 343 z m 292 -206 l 349 -206 b 307 -318 349 -249 332 -283 l 371 -318 b 429 -146 407 -271 429 -221 l 429 -108 l 292 -108 z "},"ŧ":{"ha":418,"x_min":null,"x_max":null,"o":"m 114 213 b 317 -17 114 57 179 -17 b 396 -6 351 -17 382 -12 l 396 82 l 371 82 b 236 213 263 82 236 124 l 236 332 l 364 332 l 364 421 l 236 421 l 236 640 l 399 640 l 399 738 l 236 738 l 236 907 l 114 907 l 114 738 l 11 738 l 11 640 l 114 640 l 114 421 l 31 421 l 31 332 l 114 332 z "},"ť":{"ha":418,"x_min":null,"x_max":null,"o":"m 278 903 l 333 903 b 293 790 333 860 324 831 l 357 790 b 414 963 392 838 414 888 l 414 1000 l 278 1000 z m 114 213 b 317 -17 114 57 179 -17 b 396 -6 351 -17 382 -12 l 396 82 l 371 82 b 236 213 263 82 236 124 l 236 640 l 399 640 l 399 738 l 236 738 l 236 907 l 114 907 l 114 738 l 11 738 l 11 640 l 114 640 z "},"ţ":{"ha":418,"x_min":null,"x_max":null,"o":"m 114 213 b 317 -17 114 57 179 -17 b 396 -6 351 -17 382 -12 l 396 82 l 371 82 b 236 213 263 82 236 124 l 236 640 l 399 640 l 399 738 l 236 738 l 236 907 l 114 907 l 114 738 l 11 738 l 11 640 l 114 640 z m 161 -206 l 218 -206 b 176 -318 218 -249 201 -283 l 240 -318 b 299 -146 276 -271 299 -221 l 299 -108 l 161 -108 z "},"ț":{"ha":418,"x_min":null,"x_max":null,"o":"m 114 213 b 317 -17 114 57 179 -17 b 396 -6 351 -17 382 -12 l 396 82 l 371 82 b 236 213 263 82 236 124 l 236 640 l 399 640 l 399 738 l 236 738 l 236 907 l 114 907 l 114 738 l 11 738 l 11 640 l 114 640 z m 161 -206 l 218 -206 b 176 -318 218 -249 201 -283 l 240 -318 b 299 -146 276 -271 299 -221 l 299 -108 l 161 -108 z "},"ú":{"ha":786,"x_min":null,"x_max":null,"o":"m 326 836 l 446 836 l 613 1000 l 457 1000 z m 567 301 b 376 88 567 196 496 88 b 219 269 268 88 219 158 l 219 738 l 97 738 l 97 244 b 343 -17 97 74 189 -17 b 567 100 439 -17 517 22 l 567 0 l 689 0 l 689 738 l 567 738 z "},"û":{"ha":786,"x_min":null,"x_max":null,"o":"m 493 836 l 607 836 l 468 1000 l 318 1000 l 181 836 l 294 836 l 394 939 z m 567 301 b 376 88 567 196 496 88 b 219 269 268 88 219 158 l 219 738 l 97 738 l 97 244 b 343 -17 97 74 189 -17 b 567 100 439 -17 517 22 l 567 0 l 689 0 l 689 738 l 567 738 z "},"ü":{"ha":786,"x_min":null,"x_max":null,"o":"m 258 836 l 365 836 l 365 1000 l 258 1000 z m 421 836 l 528 836 l 528 1000 l 421 1000 z m 567 301 b 376 88 567 196 496 88 b 219 269 268 88 219 158 l 219 738 l 97 738 l 97 244 b 343 -17 97 74 189 -17 b 567 100 439 -17 517 22 l 567 0 l 689 0 l 689 738 l 567 738 z "},"ù":{"ha":786,"x_min":null,"x_max":null,"o":"m 460 836 l 329 1000 l 174 1000 l 340 836 z m 567 301 b 376 88 567 196 496 88 b 219 269 268 88 219 158 l 219 738 l 97 738 l 97 244 b 343 -17 97 74 189 -17 b 567 100 439 -17 517 22 l 567 0 l 689 0 l 689 738 l 567 738 z "},"ŭ":{"ha":786,"x_min":null,"x_max":null,"o":"m 192 1000 b 394 836 211 878 301 836 b 594 1000 486 836 575 878 l 504 1000 b 394 917 497 940 450 917 b 283 1000 339 917 290 940 z m 567 301 b 376 88 567 196 496 88 b 219 269 268 88 219 158 l 219 738 l 97 738 l 97 244 b 343 -17 97 74 189 -17 b 567 100 439 -17 517 22 l 567 0 l 689 0 l 689 738 l 567 738 z "},"ű":{"ha":786,"x_min":null,"x_max":null,"o":"m 246 836 l 339 836 l 464 1000 l 346 1000 z m 442 836 l 533 836 l 660 1000 l 542 1000 z m 567 301 b 376 88 567 196 496 88 b 219 269 268 88 219 158 l 219 738 l 97 738 l 97 244 b 343 -17 97 74 189 -17 b 567 100 439 -17 517 22 l 567 0 l 689 0 l 689 738 l 567 738 z "},"ū":{"ha":786,"x_min":null,"x_max":null,"o":"m 226 871 l 560 871 l 560 967 l 226 967 z m 567 301 b 376 88 567 196 496 88 b 219 269 268 88 219 158 l 219 738 l 97 738 l 97 244 b 343 -17 97 74 189 -17 b 567 100 439 -17 517 22 l 567 0 l 689 0 l 689 738 l 567 738 z "},"ų":{"ha":786,"x_min":null,"x_max":null,"o":"m 536 -153 b 640 0 536 -107 558 -61 l 689 0 l 689 738 l 567 738 l 567 301 b 376 88 567 196 496 88 b 219 269 268 88 219 158 l 219 738 l 97 738 l 97 244 b 343 -17 97 74 189 -17 b 567 114 440 -17 518 29 l 567 8 b 438 -178 485 -50 438 -115 b 618 -324 438 -269 517 -324 b 718 -307 657 -324 683 -319 l 718 -232 b 642 -247 701 -240 681 -247 b 536 -153 574 -247 536 -208 z "},"ů":{"ha":786,"x_min":null,"x_max":null,"o":"m 393 836 b 533 975 474 836 533 894 b 393 1117 533 1056 474 1117 b 253 975 313 1117 253 1057 b 393 836 253 894 313 836 z m 393 904 b 326 975 354 904 326 933 b 393 1047 326 1018 354 1047 b 460 975 432 1047 460 1017 b 393 904 460 933 432 904 z m 567 301 b 376 88 567 196 496 88 b 219 269 268 88 219 158 l 219 738 l 97 738 l 97 244 b 343 -17 97 74 189 -17 b 567 100 439 -17 517 22 l 567 0 l 689 0 l 689 738 l 567 738 z "},"ũ":{"ha":786,"x_min":null,"x_max":null,"o":"m 254 836 b 301 919 257 904 279 919 b 490 836 354 919 392 836 b 606 1000 542 836 606 868 l 532 1000 b 485 915 529 931 507 915 b 296 1000 433 915 396 1000 b 181 836 244 1000 181 967 z m 567 301 b 376 88 567 196 496 88 b 219 269 268 88 219 158 l 219 738 l 97 738 l 97 244 b 343 -17 97 74 189 -17 b 567 100 439 -17 517 22 l 567 0 l 689 0 l 689 738 l 567 738 z "},"ẃ":{"ha":1125,"x_min":null,"x_max":null,"o":"m 496 836 l 615 836 l 782 1000 l 626 1000 z m 736 0 l 890 0 l 1111 738 l 985 738 l 833 165 l 818 93 l 801 165 l 633 738 l 501 738 l 333 165 l 315 90 l 297 165 l 146 738 l 14 738 l 233 0 l 385 0 l 543 551 l 560 635 l 576 551 z "},"ŵ":{"ha":1125,"x_min":null,"x_max":null,"o":"m 663 836 l 776 836 l 638 1000 l 488 1000 l 350 836 l 464 836 l 564 939 z m 736 0 l 890 0 l 1111 738 l 985 738 l 833 165 l 818 93 l 801 165 l 633 738 l 501 738 l 333 165 l 315 90 l 297 165 l 146 738 l 14 738 l 233 0 l 385 0 l 543 551 l 560 635 l 576 551 z "},"ẅ":{"ha":1125,"x_min":null,"x_max":null,"o":"m 428 836 l 535 836 l 535 1000 l 428 1000 z m 590 836 l 697 836 l 697 1000 l 590 1000 z m 736 0 l 890 0 l 1111 738 l 985 738 l 833 165 l 818 93 l 801 165 l 633 738 l 501 738 l 333 165 l 315 90 l 297 165 l 146 738 l 14 738 l 233 0 l 385 0 l 543 551 l 560 635 l 576 551 z "},"ẁ":{"ha":1125,"x_min":null,"x_max":null,"o":"m 629 836 l 499 1000 l 343 1000 l 510 836 z m 736 0 l 890 0 l 1111 738 l 985 738 l 833 165 l 818 93 l 801 165 l 633 738 l 501 738 l 333 165 l 315 90 l 297 165 l 146 738 l 14 738 l 233 0 l 385 0 l 543 551 l 560 635 l 576 551 z "},"ý":{"ha":732,"x_min":null,"x_max":null,"o":"m 293 836 l 413 836 l 579 1000 l 424 1000 z m 131 -322 b 381 -97 258 -322 307 -275 l 725 738 l 600 738 l 406 250 l 372 151 l 339 250 l 139 738 l 7 738 l 308 24 l 283 -33 b 96 -217 211 -199 186 -217 l 58 -217 l 58 -311 b 131 -322 74 -315 103 -322 z "},"ÿ":{"ha":732,"x_min":null,"x_max":null,"o":"m 225 836 l 332 836 l 332 1000 l 225 1000 z m 388 836 l 494 836 l 494 1000 l 388 1000 z m 131 -322 b 381 -97 258 -322 307 -275 l 725 738 l 600 738 l 406 250 l 372 151 l 339 250 l 139 738 l 7 738 l 308 24 l 283 -33 b 96 -217 211 -199 186 -217 l 58 -217 l 58 -311 b 131 -322 74 -315 103 -322 z "},"ŷ":{"ha":732,"x_min":null,"x_max":null,"o":"m 460 836 l 574 836 l 435 1000 l 285 1000 l 147 836 l 261 836 l 361 939 z m 131 -322 b 381 -97 258 -322 307 -275 l 725 738 l 600 738 l 406 250 l 372 151 l 339 250 l 139 738 l 7 738 l 308 24 l 283 -33 b 96 -217 211 -199 186 -217 l 58 -217 l 58 -311 b 131 -322 74 -315 103 -322 z "},"ỳ":{"ha":732,"x_min":null,"x_max":null,"o":"m 426 836 l 296 1000 l 140 1000 l 307 836 z m 131 -322 b 381 -97 258 -322 307 -275 l 725 738 l 600 738 l 406 250 l 372 151 l 339 250 l 139 738 l 7 738 l 308 24 l 283 -33 b 96 -217 211 -199 186 -217 l 58 -217 l 58 -311 b 131 -322 74 -315 103 -322 z "},"ž":{"ha":692,"x_min":null,"x_max":null,"o":"m 446 1000 l 347 896 l 247 1000 l 133 1000 l 271 836 l 421 836 l 560 1000 z m 42 0 l 650 0 l 650 96 l 188 96 l 625 640 l 625 738 l 58 738 l 58 640 l 479 640 l 42 96 z "},"ź":{"ha":692,"x_min":null,"x_max":null,"o":"m 279 836 l 399 836 l 565 1000 l 410 1000 z m 42 0 l 650 0 l 650 96 l 188 96 l 625 640 l 625 738 l 58 738 l 58 640 l 479 640 l 42 96 z "},"ż":{"ha":692,"x_min":null,"x_max":null,"o":"m 285 836 l 407 836 l 407 1000 l 285 1000 z m 42 0 l 650 0 l 650 96 l 188 96 l 625 640 l 625 738 l 58 738 l 58 640 l 479 640 l 42 96 z "},"´":{"ha":794,"x_min":null,"x_max":null,"o":"m 331 836 l 450 836 l 617 1000 l 461 1000 z "},"`":{"ha":794,"x_min":null,"x_max":null,"o":"m 464 836 l 333 1000 l 178 1000 l 344 836 z "},"ˆ":{"ha":794,"x_min":null,"x_max":null,"o":"m 497 836 l 611 836 l 472 1000 l 322 1000 l 185 836 l 299 836 l 399 939 z "},"ˇ":{"ha":794,"x_min":null,"x_max":null,"o":"m 497 1000 l 399 896 l 299 1000 l 185 1000 l 322 836 l 472 836 l 611 1000 z "},"˜":{"ha":794,"x_min":null,"x_max":null,"o":"m 258 836 b 306 919 261 904 283 919 b 494 836 358 919 396 836 b 610 1000 546 836 610 868 l 536 1000 b 489 915 533 931 511 915 b 300 1000 438 915 400 1000 b 185 836 249 1000 185 967 z "},"¨":{"ha":794,"x_min":null,"x_max":null,"o":"m 263 836 l 369 836 l 369 1000 l 263 1000 z m 425 836 l 532 836 l 532 1000 l 425 1000 z "},"˚":{"ha":794,"x_min":null,"x_max":null,"o":"m 397 836 b 538 975 478 836 538 894 b 397 1117 538 1056 478 1117 b 257 975 317 1117 257 1057 b 397 836 257 894 317 836 z m 397 904 b 331 975 358 904 331 933 b 397 1047 331 1018 358 1047 b 464 975 436 1047 464 1017 b 397 904 464 933 436 904 z "},"¸":{"ha":794,"x_min":null,"x_max":null,"o":"m 403 -185 b 232 -244 403 -222 344 -242 l 232 -307 b 503 -178 411 -303 503 -264 b 388 -78 503 -122 464 -87 l 431 0 l 354 0 l 285 -129 b 403 -185 371 -137 403 -150 z "},"˝":{"ha":794,"x_min":null,"x_max":null,"o":"m 250 836 l 343 836 l 468 1000 l 350 1000 z m 446 836 l 538 836 l 664 1000 l 546 1000 z "},"˘":{"ha":794,"x_min":null,"x_max":null,"o":"m 196 1000 b 399 836 215 878 306 836 b 599 1000 490 836 579 878 l 508 1000 b 399 917 501 940 454 917 b 288 1000 343 917 294 940 z "},"¯":{"ha":794,"x_min":null,"x_max":null,"o":"m 231 871 l 564 871 l 564 967 l 231 967 z "},"˙":{"ha":794,"x_min":null,"x_max":null,"o":"m 336 836 l 458 836 l 458 1000 l 336 1000 z "},"·":{"ha":794,"x_min":null,"x_max":null,"o":"m 336 340 l 458 340 l 458 503 l 336 503 z "},"˛":{"ha":794,"x_min":null,"x_max":null,"o":"m 314 -153 b 439 15 314 -103 340 -54 l 407 49 b 215 -178 286 -19 215 -101 b 396 -324 215 -269 294 -324 b 496 -307 435 -324 461 -319 l 496 -232 b 419 -247 479 -240 458 -247 b 314 -153 351 -247 314 -208 z "},"̦":{"ha":794,"x_min":null,"x_max":null,"o":"m 331 -206 l 388 -206 b 346 -318 388 -249 371 -283 l 410 -318 b 468 -146 446 -271 468 -221 l 468 -108 l 331 -108 z "},"":{"ha":794,"x_min":null,"x_max":null,"o":"m 343 903 l 399 903 b 358 790 399 860 389 831 l 422 790 b 479 963 457 838 479 888 l 479 1000 l 343 1000 z "},"":{"ha":794,"x_min":null,"x_max":null,"o":"m 468 933 l 413 933 b 453 1044 413 975 428 1010 l 389 1044 b 331 874 353 997 331 949 l 331 836 l 468 836 z "},".":{"ha":317,"x_min":null,"x_max":null,"o":"m 83 0 l 233 0 l 233 150 l 83 150 z "},",":{"ha":317,"x_min":null,"x_max":null,"o":"m 83 0 l 144 0 b 94 -229 144 -86 126 -146 l 164 -229 b 233 69 213 -139 233 -60 l 233 150 l 83 150 z "},":":{"ha":317,"x_min":null,"x_max":null,"o":"m 83 521 l 233 521 l 233 672 l 83 672 z m 83 0 l 233 0 l 233 150 l 83 150 z "},";":{"ha":317,"x_min":null,"x_max":null,"o":"m 83 521 l 233 521 l 233 672 l 83 672 z m 83 0 l 144 0 b 94 -229 144 -86 126 -146 l 164 -229 b 233 69 213 -139 233 -60 l 233 150 l 83 150 z "},"…":{"ha":990,"x_min":null,"x_max":null,"o":"m 83 0 l 233 0 l 233 150 l 83 150 z m 419 0 l 569 0 l 569 150 l 419 150 z m 756 0 l 907 0 l 907 150 l 756 150 z "},"?":{"ha":725,"x_min":null,"x_max":null,"o":"m 658 707 b 365 961 658 850 560 961 b 43 685 176 961 67 856 l 165 685 b 364 863 181 799 242 863 b 536 706 478 863 536 803 b 260 232 536 515 260 554 l 382 232 b 658 707 382 514 658 460 z m 246 0 l 396 0 l 396 150 l 246 150 z "},"!":{"ha":438,"x_min":null,"x_max":null,"o":"m 158 232 l 279 232 l 279 944 l 158 944 z m 143 0 l 294 0 l 294 150 l 143 150 z "},"¿":{"ha":725,"x_min":null,"x_max":null,"o":"m 479 672 l 329 672 l 329 522 l 479 522 z m 67 -35 b 360 -289 67 -178 165 -289 b 682 -12 549 -289 658 -183 l 560 -12 b 361 -190 544 -126 483 -190 b 189 -33 247 -190 189 -131 b 465 440 189 157 465 118 l 343 440 b 67 -35 343 158 67 213 z "},"¡":{"ha":438,"x_min":null,"x_max":null,"o":"m 294 672 l 143 672 l 143 522 l 294 522 z m 279 440 l 158 440 l 158 -272 l 279 -272 z "},"(":{"ha":444,"x_min":null,"x_max":null,"o":"m 294 -251 l 415 -251 b 218 375 285 -33 218 169 b 415 1000 218 579 285 782 l 294 1000 b 88 375 158 788 88 582 b 294 -251 88 168 158 -39 z "},")":{"ha":444,"x_min":null,"x_max":null,"o":"m 150 -251 b 357 375 286 -39 357 168 b 150 1000 357 582 286 788 l 29 1000 b 226 375 160 782 226 579 b 29 -251 226 169 160 -33 z "},"{":{"ha":476,"x_min":null,"x_max":null,"o":"m 169 375 b 296 557 263 388 296 438 l 296 803 b 399 913 296 881 322 913 l 449 913 l 449 1000 l 343 1000 b 174 825 225 1000 174 940 l 174 563 b 35 418 174 444 150 418 l 35 331 b 174 186 150 331 174 304 l 174 -76 b 343 -251 174 -192 225 -251 l 449 -251 l 449 -164 l 399 -164 b 296 -54 322 -164 296 -132 l 296 192 b 169 375 296 311 263 361 z "},"}":{"ha":476,"x_min":null,"x_max":null,"o":"m 307 375 b 181 192 213 361 181 311 l 181 -54 b 76 -164 181 -132 154 -164 l 28 -164 l 28 -251 l 132 -251 b 301 -76 250 -251 301 -192 l 301 186 b 440 331 301 304 325 331 l 440 418 b 301 563 325 418 301 444 l 301 825 b 132 1000 301 940 250 1000 l 28 1000 l 28 913 l 76 913 b 181 803 154 913 181 881 l 181 557 b 307 375 181 438 213 388 z "},"[":{"ha":467,"x_min":null,"x_max":null,"o":"m 150 -251 l 439 -251 l 439 -164 l 272 -164 l 272 913 l 439 913 l 439 1000 l 150 1000 z "},"]":{"ha":467,"x_min":null,"x_max":null,"o":"m 315 -251 l 315 1000 l 28 1000 l 28 913 l 194 913 l 194 -164 l 28 -164 l 28 -251 z "},"/":{"ha":469,"x_min":null,"x_max":null,"o":"m 0 0 l 122 0 l 469 944 l 347 944 z "},"\\":{"ha":469,"x_min":null,"x_max":null,"o":"m 469 0 l 122 944 l 0 944 l 347 0 z "},"_":{"ha":606,"x_min":null,"x_max":null,"o":"m 43 -110 l 563 -110 l 563 -17 l 43 -17 z "},"-":{"ha":560,"x_min":null,"x_max":null,"o":"m 94 326 l 464 326 l 464 431 l 94 431 z "},"­":{"ha":560,"x_min":null,"x_max":null,"o":""},"–":{"ha":694,"x_min":null,"x_max":null,"o":"m 94 326 l 599 326 l 599 431 l 94 431 z "},"—":{"ha":1389,"x_min":null,"x_max":null,"o":"m 94 326 l 1293 326 l 1293 431 l 94 431 z "},"¦":{"ha":340,"x_min":null,"x_max":null,"o":"m 108 493 l 231 493 l 231 1000 l 108 1000 z m 108 -307 l 231 -307 l 231 200 l 108 200 z "},"|":{"ha":340,"x_min":null,"x_max":null,"o":"m 108 -307 l 231 -307 l 231 1000 l 108 1000 z "},"«":{"ha":953,"x_min":null,"x_max":null,"o":"m 439 54 l 439 193 l 206 376 l 439 558 l 439 697 l 94 431 l 94 321 z m 833 54 l 833 193 l 600 376 l 833 558 l 833 697 l 489 431 l 489 321 z "},"»":{"ha":953,"x_min":null,"x_max":null,"o":"m 514 54 l 858 321 l 858 431 l 514 697 l 514 558 l 747 376 l 514 193 z m 119 54 l 464 321 l 464 431 l 119 697 l 119 558 l 353 376 l 119 193 z "},"‹":{"ha":560,"x_min":null,"x_max":null,"o":"m 439 54 l 439 193 l 206 376 l 439 558 l 439 697 l 94 431 l 94 321 z "},"›":{"ha":560,"x_min":null,"x_max":null,"o":"m 119 54 l 464 321 l 464 431 l 119 697 l 119 558 l 353 376 l 119 193 z "},"‚":{"ha":317,"x_min":null,"x_max":null,"o":"m 83 0 l 144 0 b 103 -176 144 -65 128 -111 l 174 -176 b 233 51 213 -107 233 -49 l 233 146 l 83 146 z "},"„":{"ha":558,"x_min":null,"x_max":null,"o":"m 83 0 l 144 0 b 103 -176 144 -65 128 -111 l 174 -176 b 233 51 213 -107 233 -49 l 233 146 l 83 146 z m 324 0 l 385 0 b 343 -176 385 -65 369 -111 l 414 -176 b 475 51 451 -107 475 -49 l 475 146 l 324 146 z "},"‘":{"ha":317,"x_min":null,"x_max":null,"o":"m 233 765 l 172 765 b 214 944 172 832 189 878 l 143 944 b 83 715 106 872 83 814 l 83 619 l 233 619 z "},"“":{"ha":558,"x_min":null,"x_max":null,"o":"m 475 765 l 413 765 b 456 944 413 832 429 878 l 385 944 b 324 715 344 872 324 814 l 324 619 l 475 619 z m 233 765 l 172 765 b 214 944 172 832 189 878 l 143 944 b 83 715 106 872 83 814 l 83 619 l 233 619 z "},"’":{"ha":317,"x_min":null,"x_max":null,"o":"m 83 797 l 144 797 b 103 619 144 731 129 685 l 174 619 b 233 849 213 689 233 749 l 233 944 l 83 944 z "},"”":{"ha":558,"x_min":null,"x_max":null,"o":"m 83 797 l 144 797 b 103 619 144 731 128 685 l 174 619 b 233 849 213 690 233 749 l 233 944 l 83 944 z m 324 797 l 385 797 b 343 619 385 731 369 685 l 414 619 b 475 849 451 690 475 749 l 475 944 l 324 944 z "},"'":{"ha":303,"x_min":null,"x_max":null,"o":"m 107 619 l 194 619 l 218 944 l 85 944 z "},"\"":{"ha":535,"x_min":null,"x_max":null,"o":"m 107 619 l 194 619 l 218 944 l 85 944 z m 339 619 l 426 619 l 449 944 l 315 944 z "},"•":{"ha":597,"x_min":null,"x_max":null,"o":"m 299 197 b 489 388 403 197 489 282 b 299 576 489 492 403 576 b 108 388 194 576 108 492 b 299 197 108 282 194 197 z "},"&":{"ha":1032,"x_min":null,"x_max":null,"o":"m 676 751 b 439 961 676 860 596 961 b 186 747 290 961 186 875 b 283 538 186 671 213 615 b 86 264 179 486 86 415 b 422 -17 86 107 213 -17 b 733 101 554 -17 658 29 l 840 0 l 1008 0 l 807 196 b 883 493 857 281 883 386 l 757 493 b 718 281 757 411 743 339 l 472 518 l 471 519 b 676 751 578 564 676 615 z m 308 747 b 438 856 308 806 360 856 b 556 744 511 856 556 800 b 400 589 556 665 485 626 b 308 747 338 650 308 690 z m 211 265 b 351 467 211 372 272 426 b 393 426 364 454 378 440 l 653 179 b 429 89 596 121 519 89 b 211 265 289 89 211 163 z "},"¶":{"ha":846,"x_min":null,"x_max":null,"o":"m 544 -251 l 544 826 l 628 826 l 628 -251 l 756 -251 l 756 944 l 406 944 b 57 644 193 944 57 831 b 404 344 57 456 194 344 l 417 344 l 417 -251 z "},"†":{"ha":676,"x_min":null,"x_max":null,"o":"m 276 -274 l 399 -274 l 399 542 l 633 542 l 633 646 l 399 646 l 399 967 l 276 967 l 276 646 l 43 646 l 43 542 l 276 542 z "},"‡":{"ha":676,"x_min":null,"x_max":null,"o":"m 43 25 l 276 25 l 276 -274 l 399 -274 l 399 25 l 633 25 l 633 129 l 399 129 l 399 542 l 633 542 l 633 646 l 399 646 l 399 967 l 276 967 l 276 646 l 43 646 l 43 542 l 276 542 l 276 129 l 43 129 z "},"§":{"ha":868,"x_min":null,"x_max":null,"o":"m 738 -19 b 675 132 738 50 714 97 b 794 331 747 179 794 247 b 260 739 794 683 260 497 b 415 869 260 817 315 869 b 600 701 517 869 583 818 l 721 701 b 417 961 699 879 582 961 b 143 729 239 961 143 857 b 197 585 143 663 164 617 b 74 389 118 538 74 464 b 615 -35 74 39 615 224 b 439 -176 615 -119 554 -176 b 232 -10 325 -176 249 -118 l 110 -10 b 440 -268 136 -178 263 -268 b 738 -19 613 -268 738 -178 z m 188 390 b 272 536 188 453 217 501 b 681 322 432 468 681 499 b 594 181 681 261 649 218 b 188 390 431 247 188 229 z "},"*":{"ha":479,"x_min":null,"x_max":null,"o":"m 397 613 l 303 724 l 444 758 l 414 853 l 279 797 l 289 944 l 190 944 l 201 797 l 65 853 l 35 758 l 178 724 l 83 613 l 163 554 l 240 679 l 318 554 z "},"™":{"ha":1247,"x_min":null,"x_max":null,"o":"m 204 378 l 317 378 l 317 851 l 499 851 l 499 944 l 22 944 l 22 851 l 204 851 z m 569 378 l 682 378 l 676 815 l 718 688 l 840 378 l 921 378 l 1043 686 l 1085 815 l 1081 378 l 1192 378 l 1192 944 l 1046 944 l 904 579 l 883 507 l 863 579 l 719 944 l 569 944 z "},"®":{"ha":769,"x_min":null,"x_max":null,"o":"m 385 315 b 714 640 575 315 714 454 b 385 961 714 825 575 961 b 56 639 193 961 56 825 b 385 315 56 453 193 315 z m 385 369 b 118 639 231 369 118 483 b 385 907 118 792 231 907 b 651 640 538 907 651 792 b 385 369 651 485 538 369 z m 247 456 l 324 456 l 324 606 l 386 606 b 453 554 426 606 443 597 l 474 456 l 551 456 l 522 571 b 485 632 515 600 504 619 b 535 719 517 649 535 678 b 397 833 535 789 482 833 l 247 833 z m 393 775 b 463 715 436 775 463 751 b 392 657 463 679 436 657 l 324 657 l 324 775 z "},"©":{"ha":1182,"x_min":null,"x_max":null,"o":"m 590 -58 b 1107 451 890 -58 1107 158 b 590 961 1107 746 890 961 b 74 451 290 961 74 747 b 590 -58 74 157 290 -58 z m 590 -4 b 136 451 328 -4 136 188 b 590 907 136 711 328 907 b 1044 451 853 907 1044 711 b 590 -4 1044 188 853 -4 z m 857 575 b 596 775 828 706 721 775 b 307 450 417 775 307 650 b 597 129 307 250 418 129 b 856 324 721 129 822 192 l 744 324 b 593 215 719 256 664 215 b 418 450 482 215 418 303 b 593 686 418 597 482 686 b 746 575 667 686 724 646 z "},"@":{"ha":1361,"x_min":null,"x_max":null,"o":"m 1029 24 b 1296 413 1194 24 1296 168 b 685 1017 1296 761 1040 1017 b 65 390 325 1017 65 753 b 685 -231 65 31 322 -231 b 988 -178 796 -231 894 -215 l 967 -119 b 685 -168 879 -156 789 -168 b 135 390 364 -168 135 64 b 685 956 135 713 367 956 b 1226 411 999 956 1226 722 b 1069 103 1226 215 1165 103 b 972 229 1000 103 972 153 l 972 508 b 688 796 972 682 879 796 b 374 536 506 796 396 697 l 496 536 b 683 693 511 631 567 693 b 851 506 799 693 851 626 l 851 485 b 508 442 710 483 608 474 b 344 231 400 406 344 335 b 588 22 344 100 450 22 b 857 160 686 22 793 64 b 1029 24 872 75 922 24 z m 467 244 b 851 399 467 333 538 396 l 851 343 b 613 125 851 225 742 125 b 467 244 519 125 467 172 z "},"ª":{"ha":483,"x_min":null,"x_max":null,"o":"m 153 750 b 238 821 160 793 188 821 b 326 733 299 821 326 790 l 326 722 b 132 697 250 722 192 717 b 29 567 64 674 29 628 b 179 440 29 482 92 440 b 326 515 235 440 292 463 b 340 451 328 492 332 468 l 447 451 b 431 560 435 476 431 508 l 431 733 b 244 910 431 836 368 910 b 46 750 132 910 60 850 z m 136 572 b 326 656 136 619 172 654 l 326 638 b 207 518 326 571 274 518 b 136 572 164 518 136 539 z "},"º":{"ha":483,"x_min":null,"x_max":null,"o":"m 242 440 b 456 674 371 440 456 522 b 242 910 456 819 374 910 b 28 674 111 910 28 825 b 242 440 28 528 110 440 z m 242 526 b 138 674 174 526 138 579 b 242 821 138 769 174 821 b 346 674 308 821 346 768 b 242 526 346 578 310 526 z "},"#":{"ha":971,"x_min":null,"x_max":null,"o":"m 150 0 l 265 0 l 311 225 l 557 225 l 511 0 l 625 0 l 671 225 l 806 225 l 806 322 l 692 322 l 753 621 l 899 621 l 899 718 l 772 718 l 819 944 l 706 944 l 658 718 l 413 718 l 460 944 l 344 944 l 297 718 l 164 718 l 164 621 l 278 621 l 217 322 l 71 322 l 71 225 l 196 225 z m 332 322 l 393 621 l 639 621 l 578 322 z "},"€":{"ha":800,"x_min":null,"x_max":null,"o":"m 8 299 l 128 299 b 456 -17 165 100 282 -17 b 760 239 597 -17 711 78 l 633 239 b 457 89 600 142 536 89 b 254 299 354 89 283 165 l 478 299 l 499 396 l 242 396 b 240 444 240 411 240 428 b 242 493 240 461 240 478 l 515 493 l 536 590 l 254 590 b 457 804 282 726 354 804 b 636 649 539 804 607 747 l 761 649 b 461 910 719 819 603 910 b 128 590 285 910 165 790 l 67 590 l 46 493 l 117 493 b 115 444 115 478 115 461 b 117 396 115 428 115 411 l 29 396 z "},"$":{"ha":800,"x_min":null,"x_max":null,"o":"m 335 -149 l 460 -149 l 460 -15 b 735 250 619 -1 735 93 b 213 660 735 596 213 433 b 381 804 213 746 271 804 b 585 643 493 804 568 756 l 708 643 b 460 904 690 800 592 882 l 460 1042 l 335 1042 l 335 907 b 88 664 172 888 88 779 b 610 239 88 313 610 488 b 418 89 610 151 543 89 b 188 256 292 89 203 147 l 64 256 b 335 -11 88 100 186 13 z "},"¥":{"ha":800,"x_min":null,"x_max":null,"o":"m 144 147 l 335 147 l 335 0 l 464 0 l 464 147 l 654 147 l 654 244 l 464 244 l 464 342 l 654 342 l 654 439 l 507 439 l 778 893 l 649 893 l 446 540 l 403 451 l 361 540 l 158 893 l 21 893 l 292 439 l 144 439 l 144 342 l 335 342 l 335 244 l 144 244 z "},"£":{"ha":800,"x_min":null,"x_max":null,"o":"m 85 0 l 729 0 l 729 103 l 319 103 b 413 281 379 150 413 211 b 403 342 413 301 410 322 l 615 342 l 615 439 l 354 439 b 239 660 303 513 239 579 b 413 804 239 746 299 804 b 606 643 517 804 589 756 l 729 643 b 413 910 708 828 578 910 b 114 663 217 910 114 794 b 215 439 114 568 168 503 l 106 439 l 106 342 l 275 342 b 288 278 283 322 288 300 b 179 103 288 207 253 146 l 85 103 z "},"¢":{"ha":800,"x_min":null,"x_max":null,"o":"m 346 -76 l 471 -76 l 471 57 b 729 318 601 75 696 160 l 607 318 b 414 151 582 208 513 151 b 201 439 278 151 201 257 b 410 728 201 626 275 728 b 603 556 507 728 581 671 l 724 556 b 471 822 700 710 604 801 l 471 958 l 346 958 l 346 822 b 76 439 179 796 76 663 b 346 58 76 226 175 86 z "},"ƒ":{"ha":800,"x_min":null,"x_max":null,"o":"m 458 -94 l 458 533 l 608 533 l 608 631 l 458 631 l 458 681 b 592 811 458 769 485 811 l 604 811 l 604 899 b 536 910 592 904 567 910 b 336 681 400 910 336 836 l 336 631 l 233 631 l 233 533 l 336 533 l 336 -94 b 203 -225 336 -183 310 -225 l 190 -225 l 190 -312 b 258 -324 203 -318 228 -324 b 458 -94 394 -324 458 -250 z "},"¤":{"ha":800,"x_min":null,"x_max":null,"o":"m 210 186 l 288 264 b 401 233 319 244 358 233 b 513 264 443 233 481 244 l 589 188 l 656 253 l 579 329 b 608 440 597 361 608 399 b 578 554 608 483 597 522 l 656 631 l 589 697 l 513 619 b 401 650 481 639 443 650 b 289 619 358 650 321 639 l 210 699 l 144 632 l 224 553 b 193 440 204 521 193 483 b 222 331 193 399 203 361 l 144 253 z m 401 313 b 281 440 331 313 281 367 b 401 571 281 515 331 571 b 521 440 471 571 521 515 b 401 313 521 367 471 313 z "},"°":{"ha":483,"x_min":null,"x_max":null,"o":"m 242 482 b 456 694 365 482 456 572 b 242 910 456 818 365 910 b 28 694 118 910 28 818 b 242 482 28 572 118 482 z m 242 568 b 138 694 182 568 138 621 b 242 821 138 768 182 821 b 346 694 301 821 346 768 b 242 568 346 621 301 568 z "},"%":{"ha":1086,"x_min":null,"x_max":null,"o":"m 239 407 b 453 657 374 407 453 497 b 239 910 453 815 374 910 b 25 657 106 910 25 818 b 239 407 25 499 104 407 z m 160 0 l 282 0 l 926 893 l 804 893 z m 239 496 b 135 657 172 496 135 554 b 239 819 135 763 171 819 b 344 657 307 819 344 761 b 239 496 344 553 307 496 z m 846 -11 b 1060 239 981 -11 1060 79 b 846 492 1060 399 981 492 b 632 239 713 492 632 400 b 846 -11 632 82 711 -11 z m 846 78 b 742 239 779 78 742 136 b 846 401 742 344 778 401 b 951 239 914 401 951 343 b 846 78 951 135 914 78 z "},"‰":{"ha":1565,"x_min":null,"x_max":null,"o":"m 239 407 b 453 657 374 407 453 497 b 239 910 453 815 374 910 b 25 657 106 910 25 818 b 239 407 25 499 104 407 z m 160 0 l 282 0 l 926 893 l 804 893 z m 239 496 b 135 657 172 496 135 554 b 239 819 135 763 171 819 b 344 657 307 819 344 761 b 239 496 344 553 307 496 z m 846 -11 b 1060 239 981 -11 1060 79 b 846 492 1060 399 981 492 b 632 239 713 492 632 400 b 846 -11 632 82 711 -11 z m 1325 -11 b 1539 239 1460 -11 1539 79 b 1325 492 1539 399 1460 492 b 1111 239 1192 492 1111 400 b 1325 -11 1111 82 1190 -11 z m 846 78 b 742 239 779 78 742 136 b 846 401 742 344 778 401 b 951 239 914 401 951 343 b 846 78 951 135 914 78 z m 1325 78 b 1221 239 1258 78 1221 136 b 1325 401 1221 344 1257 401 b 1431 239 1393 401 1431 343 b 1325 78 1431 135 1393 78 z "},"⁄":{"ha":128,"x_min":null,"x_max":null,"o":"m -319 0 l -197 0 l 447 893 l 325 893 z "},"∕":{"ha":128,"x_min":null,"x_max":null,"o":"m -319 0 l -197 0 l 447 893 l 325 893 z "},"⁰":{"ha":479,"x_min":null,"x_max":null,"o":"m 239 351 b 453 629 374 351 453 451 b 239 910 453 806 374 910 b 25 629 106 910 25 808 b 239 351 25 454 104 351 z m 239 440 b 135 629 172 440 135 508 b 239 819 135 753 171 819 b 344 629 307 819 344 751 b 239 440 344 507 307 440 z "},"¹":{"ha":479,"x_min":null,"x_max":null,"o":"m 99 363 l 411 363 l 411 444 l 311 444 l 311 897 l 217 897 l 217 890 b 146 849 217 861 201 849 l 99 849 l 99 768 l 199 768 l 199 444 l 99 444 z "},"²":{"ha":479,"x_min":null,"x_max":null,"o":"m 42 363 l 435 363 l 435 444 l 153 444 b 433 743 199 568 433 582 b 244 910 433 836 369 910 b 40 739 128 910 54 844 l 149 739 b 244 821 157 790 186 821 b 326 742 296 821 326 792 b 42 389 326 615 42 628 z "},"³":{"ha":479,"x_min":null,"x_max":null,"o":"m 451 515 b 368 643 451 571 428 615 b 436 750 415 665 436 700 b 243 910 436 838 369 910 b 36 739 126 910 50 844 l 143 739 b 242 821 151 790 183 821 b 329 749 297 821 329 794 b 213 676 329 717 311 676 l 189 676 l 189 597 l 219 597 b 344 519 321 597 344 558 b 242 438 344 468 307 438 b 132 524 176 438 142 471 l 25 524 b 242 351 40 415 121 351 b 451 515 379 351 451 424 z "},"⁴":{"ha":479,"x_min":null,"x_max":null,"o":"m 388 363 l 388 475 l 457 475 l 457 558 l 388 558 l 388 897 l 290 897 l 32 571 l 32 475 l 279 475 l 279 363 z m 117 558 l 279 769 l 279 558 z "},"½":{"ha":1086,"x_min":null,"x_max":null,"o":"m 99 363 l 411 363 l 411 444 l 311 444 l 311 897 l 217 897 l 217 890 b 146 849 217 861 201 849 l 99 849 l 99 768 l 199 768 l 199 444 l 99 444 z m 182 0 l 304 0 l 949 893 l 826 893 z m 649 0 l 1042 0 l 1042 82 l 760 82 b 1040 381 806 206 1040 219 b 851 547 1040 474 976 547 b 647 376 735 547 661 482 l 756 376 b 851 458 764 428 793 458 b 933 379 903 458 933 429 b 649 26 933 253 649 265 z "},"¼":{"ha":1086,"x_min":null,"x_max":null,"o":"m 99 363 l 411 363 l 411 444 l 311 444 l 311 897 l 217 897 l 217 890 b 146 849 217 861 201 849 l 99 849 l 99 768 l 199 768 l 199 444 l 99 444 z m 226 0 l 349 0 l 993 893 l 871 893 z m 994 0 l 994 113 l 1064 113 l 1064 196 l 994 196 l 994 535 l 897 535 l 639 208 l 639 113 l 886 113 l 886 0 z m 724 196 l 886 407 l 886 196 z "},"¾":{"ha":1086,"x_min":null,"x_max":null,"o":"m 451 515 b 368 643 451 571 428 615 b 436 750 415 665 436 700 b 243 910 436 838 369 910 b 36 739 126 910 50 844 l 143 739 b 242 821 151 790 183 821 b 329 749 297 821 329 794 b 213 676 329 717 311 676 l 189 676 l 189 597 l 219 597 b 344 519 321 597 344 558 b 242 438 344 468 307 438 b 132 524 176 438 142 471 l 25 524 b 242 351 40 415 121 351 b 451 515 379 351 451 424 z m 221 0 l 343 0 l 988 893 l 865 893 z m 994 0 l 994 113 l 1064 113 l 1064 196 l 994 196 l 994 535 l 897 535 l 639 208 l 639 113 l 886 113 l 886 0 z m 724 196 l 886 407 l 886 196 z "},"+":{"ha":800,"x_min":null,"x_max":null,"o":"m 129 393 l 351 393 l 351 171 l 449 171 l 449 393 l 669 393 l 669 490 l 449 490 l 449 711 l 351 711 l 351 490 l 129 490 z "},"−":{"ha":800,"x_min":null,"x_max":null,"o":"m 129 393 l 669 393 l 669 490 l 129 490 z "},"×":{"ha":800,"x_min":null,"x_max":null,"o":"m 224 196 l 400 372 l 576 196 l 646 265 l 468 442 l 644 618 l 576 686 l 400 510 l 224 686 l 156 618 l 332 442 l 154 265 z "},"÷":{"ha":800,"x_min":null,"x_max":null,"o":"m 343 633 l 456 633 l 456 740 l 343 740 z m 129 396 l 669 396 l 669 488 l 129 488 z m 343 126 l 456 126 l 456 233 l 343 233 z "},"=":{"ha":800,"x_min":null,"x_max":null,"o":"m 129 532 l 669 532 l 669 629 l 129 629 z m 129 254 l 669 254 l 669 351 l 129 351 z "},"¬":{"ha":800,"x_min":null,"x_max":null,"o":"m 129 393 l 572 393 l 572 171 l 669 171 l 669 490 l 129 490 z "},"~":{"ha":800,"x_min":null,"x_max":null,"o":"m 129 396 b 260 442 178 428 221 442 b 539 349 349 442 436 349 b 669 396 578 349 621 363 l 669 488 b 539 442 621 456 578 442 b 260 535 450 442 363 535 b 129 488 221 535 178 521 z "},"<":{"ha":800,"x_min":null,"x_max":null,"o":"m 669 118 l 669 232 l 249 442 l 669 653 l 669 767 l 129 489 l 129 396 z "},">":{"ha":800,"x_min":null,"x_max":null,"o":"m 129 118 l 669 396 l 669 489 l 129 767 l 129 653 l 550 442 l 129 232 z "},"±":{"ha":800,"x_min":null,"x_max":null,"o":"m 129 449 l 351 449 l 351 226 l 449 226 l 449 449 l 669 449 l 669 546 l 449 546 l 449 767 l 351 767 l 351 546 l 129 546 z m 129 0 l 669 0 l 669 97 l 129 97 z "},"^":{"ha":800,"x_min":null,"x_max":null,"o":"m 154 542 l 254 542 l 400 844 l 544 542 l 644 542 l 446 944 l 353 944 z "},"≠":{"ha":800,"x_min":null,"x_max":null,"o":"m 129 254 l 260 254 l 213 157 l 310 157 l 357 254 l 669 254 l 669 351 l 404 351 l 493 532 l 669 532 l 669 629 l 540 629 l 588 725 l 490 725 l 443 629 l 129 629 l 129 532 l 396 532 l 307 351 l 129 351 z "},"≈":{"ha":800,"x_min":null,"x_max":null,"o":"m 129 535 b 260 581 178 567 221 581 b 539 488 349 581 436 488 b 669 535 578 488 621 501 l 669 626 b 539 581 621 594 578 581 b 260 674 450 581 363 674 b 129 626 221 674 178 660 z m 129 257 b 260 303 178 289 221 303 b 539 210 349 303 436 210 b 669 257 578 210 621 224 l 669 349 b 539 303 621 317 578 303 b 260 396 450 303 363 396 b 129 349 221 396 178 382 z "},"≤":{"ha":800,"x_min":null,"x_max":null,"o":"m 669 174 l 669 286 l 249 497 l 669 708 l 669 822 l 129 544 l 129 451 z m 129 0 l 669 0 l 669 97 l 129 97 z "},"≥":{"ha":800,"x_min":null,"x_max":null,"o":"m 129 174 l 669 451 l 669 544 l 129 822 l 129 708 l 550 497 l 129 286 z m 669 0 l 669 97 l 129 97 l 129 0 z "},"∞":{"ha":1022,"x_min":null,"x_max":null,"o":"m 51 447 b 308 186 51 292 153 186 b 511 281 399 186 468 221 b 713 186 553 221 622 186 b 969 447 868 186 969 292 b 713 707 969 601 874 707 b 511 611 624 707 553 671 b 310 707 468 671 399 707 b 51 447 147 707 51 601 z m 158 447 b 314 611 158 546 215 611 b 463 447 407 611 463 544 b 314 282 463 347 410 282 b 158 447 218 282 158 347 z m 863 447 b 707 282 863 347 804 282 b 558 447 611 282 558 347 b 707 611 558 544 614 611 b 863 447 806 611 863 546 z "},"◊":{"ha":732,"x_min":null,"x_max":null,"o":"m 442 0 l 672 446 l 442 893 l 289 893 l 60 446 l 289 0 z m 542 446 l 386 131 l 363 75 l 339 131 l 182 446 l 339 761 l 363 817 l 386 761 z "},"√":{"ha":850,"x_min":null,"x_max":null,"o":"m 674 893 l 400 131 l 381 78 l 361 131 l 181 568 l 51 568 l 300 0 l 461 0 l 799 893 z "},"∫":{"ha":497,"x_min":null,"x_max":null,"o":"m 310 -94 l 310 681 b 443 811 310 769 336 811 l 456 811 l 456 899 b 388 910 443 904 418 910 b 188 681 251 910 188 836 l 188 -94 b 54 -225 188 -183 161 -225 l 42 -225 l 42 -312 b 110 -324 54 -318 79 -324 b 310 -94 246 -324 310 -250 z "},"∂":{"ha":794,"x_min":null,"x_max":null,"o":"m 397 -17 b 735 307 604 -17 735 99 b 365 893 735 546 603 736 l 197 893 b 535 588 349 799 463 699 b 397 607 494 600 449 607 b 60 294 190 607 60 496 b 397 -17 60 100 186 -17 z m 397 89 b 185 294 261 89 185 164 b 397 501 185 428 260 501 b 610 294 533 501 610 426 b 397 89 610 161 535 89 z "},"∏":{"ha":911,"x_min":null,"x_max":null,"o":"m 108 -251 l 236 -251 l 236 789 l 675 789 l 675 -251 l 803 -251 l 803 893 l 108 893 z "},"π":{"ha":860,"x_min":null,"x_max":null,"o":"m 142 0 l 264 0 l 264 640 l 561 640 l 561 218 b 764 -11 561 63 626 -11 b 843 0 799 -11 829 -7 l 843 88 l 818 88 b 683 218 710 88 683 129 l 683 640 l 846 640 l 846 738 l 14 738 l 14 640 l 142 640 z "},"μ":{"ha":786,"x_min":null,"x_max":null,"o":"m 221 -306 l 221 7 b 343 -18 256 -10 296 -18 b 567 99 439 -18 517 21 l 567 0 l 689 0 l 689 738 l 567 738 l 567 301 b 376 86 567 196 496 86 b 221 269 269 86 221 158 l 221 738 l 99 738 l 99 -306 z "},"∑":{"ha":807,"x_min":null,"x_max":null,"o":"m 42 -306 l 724 -306 l 724 -201 l 244 -201 l 533 311 l 249 789 l 724 789 l 724 893 l 42 893 l 389 311 z "},"Ω":{"ha":1051,"x_min":null,"x_max":null,"o":"m 464 0 l 464 90 b 210 474 315 147 210 281 b 525 804 210 664 326 804 b 840 474 724 804 840 664 b 588 90 840 281 735 147 l 588 0 l 990 0 l 990 103 l 781 103 b 965 482 896 181 965 319 b 525 910 965 736 797 910 b 85 482 253 910 85 736 b 269 103 85 319 154 181 l 60 103 l 60 0 z "},"Ω":{"ha":1051,"x_min":null,"x_max":null,"o":"m 464 0 l 464 90 b 210 474 315 147 210 281 b 525 804 210 664 326 804 b 840 474 724 804 840 664 b 588 90 840 281 735 147 l 588 0 l 990 0 l 990 103 l 781 103 b 965 482 896 181 965 319 b 525 910 965 736 797 910 b 85 482 253 910 85 736 b 269 103 85 319 154 181 l 60 103 l 60 0 z "},"∆":{"ha":913,"x_min":null,"x_max":null,"o":"m 529 893 l 382 893 l 39 0 l 874 0 z m 425 686 l 453 769 l 481 686 l 701 103 l 204 103 z "},"Δ":{"ha":913,"x_min":null,"x_max":null,"o":"m 529 893 l 382 893 l 39 0 l 874 0 z m 425 686 l 453 769 l 481 686 l 701 103 l 204 103 z "},"ℓ":{"ha":718,"x_min":null,"x_max":null,"o":"m 35 258 l 35 163 b 146 186 72 168 108 176 b 396 -17 193 57 279 -17 b 656 240 528 -17 624 68 l 542 240 b 399 89 525 138 471 89 b 258 222 333 89 286 136 b 635 654 464 304 635 451 b 399 910 635 794 549 910 b 107 446 218 910 107 747 b 122 276 107 385 113 328 b 35 258 93 269 64 264 z m 231 446 b 394 804 231 676 289 804 b 511 649 469 804 511 731 b 239 315 511 492 400 382 b 231 446 233 354 231 397 z "},"℮":{"ha":1046,"x_min":null,"x_max":null,"o":"m 125 339 b 522 -18 125 133 310 -18 b 838 119 650 -18 765 38 l 781 119 b 524 4 714 44 622 4 b 279 107 426 4 339 42 b 271 131 272 115 271 122 l 271 326 b 275 329 271 329 272 329 l 921 329 l 921 339 b 522 699 921 529 743 699 b 125 339 317 699 125 547 z m 765 575 b 775 550 771 565 775 558 l 775 354 b 771 349 775 350 774 349 l 275 349 b 271 354 272 349 271 350 l 271 546 b 401 653 271 585 356 633 b 524 676 440 668 481 676 b 765 575 615 676 699 638 z "},"":{"ha":2415,"x_min":null,"x_max":null,"o":"m 153 0 l 453 0 l 453 972 l 153 972 z m 515 689 l 815 689 l 815 972 l 515 972 z m 876 0 l 1178 0 l 1178 972 l 876 972 z m 1239 689 l 1539 689 l 1539 972 l 1239 972 z m 1600 0 l 1901 0 l 1901 972 l 1600 972 z m 1963 689 l 2263 689 l 2263 972 l 1963 972 z m 1963 343 l 2263 343 l 2263 628 l 1963 628 z "}}}
